<?xml version="1.0" encoding="utf-8"?>
<!-- Generator: Adobe Illustrator 25.4.1, SVG Export Plug-In . SVG Version: 6.00 Build 0)  -->
<svg version="1.1" id="Layer_1" xmlns="http://www.w3.org/2000/svg" xmlns:xlink="http://www.w3.org/1999/xlink" x="0px" y="0px"
	 viewBox="0 0 101.1 26.7" style="enable-background:new 0 0 101.1 26.7;" xml:space="preserve">
<style type="text/css">
	.st0{display:none;}
	.st1{display:inline;}
	.st2{fill:#FFFFFF;}
	.st3{display:inline;fill:#FFFFFF;}
</style>
<g class="st0">
	<path class="st1" d="M62.5,58h1v3.8h-0.6v-3.1l-1.4,2.8h-0.3l-1.4-2.8v3.1h-0.6V58h1l1.2,2.5L62.5,58z M66.2,59.1
		c0.2,0.2,0.3,0.4,0.3,0.8v1.9H66v-0.4L66,61.4c-0.2,0.3-0.6,0.4-1,0.4c-0.3,0-0.5-0.1-0.7-0.3c-0.2-0.2-0.3-0.4-0.3-0.7
		c0-0.3,0.1-0.5,0.3-0.6c0.2-0.1,0.5-0.2,0.9-0.2H66V60c0-0.4-0.2-0.6-0.7-0.6c-0.3,0-0.6,0.1-0.8,0.3l-0.2-0.3
		c0.3-0.3,0.7-0.4,1.2-0.4C65.7,58.9,66,59,66.2,59.1z M66,60.5h-0.7c-0.5,0-0.7,0.2-0.7,0.5c0,0.2,0.1,0.3,0.2,0.4
		c0.1,0.1,0.3,0.1,0.5,0.1s0.4-0.1,0.5-0.2c0.2-0.1,0.2-0.3,0.2-0.5L66,60.5L66,60.5z M69.7,58.9H69l-1.2,1.3v-2.5h-0.6v4h0.6V61
		l0.5-0.5l0,0l0.9,1.3h0.7l-1.2-1.8L69.7,58.9z M72.8,60.2v0.4h-2.3l0,0c0,0.2,0.1,0.4,0.3,0.5c0.2,0.1,0.4,0.2,0.6,0.2
		c0.4,0,0.6-0.1,0.8-0.3l0.3,0.3c-0.3,0.3-0.7,0.5-1.2,0.5c-0.4,0-0.8-0.1-1-0.4c-0.3-0.3-0.4-0.6-0.4-1.1c0-0.5,0.1-0.8,0.4-1.1
		c0.3-0.3,0.6-0.4,1-0.4c0.4,0,0.7,0.1,1,0.4S72.8,59.8,72.8,60.2z M72.2,60.1c0-0.3-0.1-0.5-0.2-0.6c-0.2-0.1-0.4-0.2-0.6-0.2
		s-0.4,0.1-0.6,0.2c-0.2,0.1-0.3,0.3-0.3,0.6v0L72.2,60.1L72.2,60.1L72.2,60.1z M75.6,61.1l-0.9-2.2h-0.6c1.2,2.9,1.2,3,1.2,3
		c0,0.1,0,0.2-0.1,0.3c-0.1,0.1-0.2,0.2-0.4,0.2c-0.1,0-0.3-0.1-0.4-0.2l-0.3,0.5c0.2,0.2,0.4,0.3,0.7,0.3c0.2,0,0.4-0.1,0.5-0.2
		c0.2-0.1,0.3-0.3,0.4-0.4l1.4-3.5h-0.6L75.6,61.1z M79.7,59.3c0.3,0.3,0.4,0.6,0.4,1.1s-0.1,0.8-0.4,1.1c-0.3,0.3-0.7,0.4-1.1,0.4
		c-0.4,0-0.8-0.1-1.1-0.4c-0.3-0.3-0.4-0.6-0.4-1.1s0.1-0.8,0.4-1.1c0.3-0.3,0.7-0.4,1.1-0.4S79.5,59,79.7,59.3z M79.6,60.4
		c0-0.3-0.1-0.5-0.3-0.7c-0.2-0.2-0.4-0.3-0.7-0.3c-0.3,0-0.5,0.1-0.7,0.3c-0.2,0.2-0.3,0.4-0.3,0.7c0,0.3,0.1,0.5,0.3,0.7
		c0.2,0.2,0.4,0.3,0.7,0.3c0.3,0,0.5-0.1,0.7-0.3S79.6,60.7,79.6,60.4z M82.7,60.5c0,0.3-0.1,0.5-0.2,0.6c-0.2,0.1-0.4,0.2-0.6,0.2
		c-0.5,0-0.7-0.3-0.7-0.8v-1.6h-0.6v1.8c0,0.4,0.1,0.7,0.3,0.9c0.2,0.2,0.5,0.3,0.8,0.3c0.2,0,0.4-0.1,0.6-0.2
		c0.2-0.1,0.3-0.2,0.4-0.4l0.1-0.1v0.6h0.6v-2.9h-0.6V60.5L82.7,60.5z M85,59.1c-0.2,0.1-0.3,0.3-0.4,0.4l-0.1,0.1v-0.7H84v2.9h0.6
		v-1.2c0-0.3,0.1-0.6,0.2-0.8c0.2-0.2,0.4-0.3,0.7-0.3h0l0-0.6C85.3,58.9,85.1,58.9,85,59.1z M90.7,58.9c-0.4,0-0.8,0.2-1.1,0.6l0,0
		l0,0c-0.2-0.4-0.5-0.6-0.9-0.6c-0.2,0-0.4,0.1-0.6,0.1c-0.2,0.1-0.3,0.2-0.4,0.4l-0.1,0.1v-0.6h-0.6v2.9h0.6v-1.6
		c0-0.3,0.1-0.5,0.2-0.6c0.2-0.1,0.4-0.2,0.6-0.2c0.2,0,0.4,0.1,0.5,0.2c0.1,0.1,0.2,0.3,0.2,0.6v1.6h0.6v-1.6
		c0-0.3,0.1-0.5,0.3-0.6c0.2-0.1,0.4-0.2,0.6-0.2c0.5,0,0.7,0.3,0.7,0.8v1.6h0.6V60c0-0.4-0.1-0.7-0.3-0.9
		C91.3,59,91.1,58.9,90.7,58.9z M94.5,59.1c0.2,0.2,0.3,0.4,0.3,0.8v1.9h-0.5v-0.4l-0.1,0.1c-0.2,0.3-0.6,0.4-1,0.4
		c-0.3,0-0.5-0.1-0.7-0.3c-0.2-0.2-0.3-0.4-0.3-0.7c0-0.3,0.1-0.5,0.3-0.6c0.2-0.1,0.5-0.2,0.9-0.2h0.8V60c0-0.4-0.2-0.6-0.7-0.6
		c-0.3,0-0.6,0.1-0.8,0.3l-0.2-0.3c0.3-0.3,0.7-0.4,1.2-0.4C94,58.9,94.3,59,94.5,59.1z M94.2,60.5h-0.7c-0.5,0-0.7,0.2-0.7,0.5
		c0,0.2,0.1,0.3,0.2,0.4c0.1,0.1,0.3,0.1,0.5,0.1s0.4-0.1,0.5-0.2c0.2-0.1,0.2-0.3,0.2-0.5C94.2,60.7,94.2,60.5,94.2,60.5z
		 M96.4,59.1c-0.2,0.1-0.3,0.3-0.4,0.4L96,59.6v-0.7h-0.6v2.9H96v-1.2c0-0.3,0.1-0.6,0.2-0.8c0.2-0.2,0.4-0.3,0.7-0.3h0l0-0.6
		C96.8,58.9,96.6,58.9,96.4,59.1z M99.9,58.9h-0.7l-1.2,1.3v-2.5h-0.6v4h0.6V61l0.5-0.5l0,0l0.9,1.3h0.7l-1.2-1.8L99.9,58.9z"/>
	<path class="st1" d="M20.9,58.6c0.1-0.1,0.3-0.2,0.4-0.4c1.5-1.5,2.3-3.4,2.3-5.6c0-2.2-0.8-4.1-2.3-5.6c-1.5-1.5-3.5-2.3-5.8-2.3
		c-2.3,0-4.2,0.8-5.8,2.3c-1.5,1.5-2.3,3.4-2.3,5.6s0.8,4.1,2.3,5.6c1.5,1.5,3.5,2.3,5.8,2.3c1.1,0,2.1-0.2,3.1-0.5
		c2.2,1.8,5.7,1.9,5.7,1.9C22.6,61.2,21.4,59.5,20.9,58.6z M20.2,56.5h-9.3c-0.4,0-0.7-0.3-0.7-0.7c0-0.4,0.3-0.7,0.7-0.7h9.3
		c0.4,0,0.7,0.3,0.7,0.7C20.8,56.2,20.5,56.5,20.2,56.5z M20.2,53.3h-9.3c-0.4,0-0.7-0.3-0.7-0.7c0-0.4,0.3-0.7,0.7-0.7h9.3
		c0.4,0,0.7,0.3,0.7,0.7C20.8,53,20.5,53.3,20.2,53.3z M20.2,50h-9.3c-0.4,0-0.7-0.3-0.7-0.7c0-0.4,0.3-0.7,0.7-0.7h9.3
		c0.4,0,0.7,0.3,0.7,0.7C20.8,49.7,20.5,50,20.2,50z M13.5,40.1c0-1.7,0.9-3.1,2-3.1s2,1.4,2,3.1s-0.9,3.1-2,3.1
		S13.5,41.9,13.5,40.1z M7.1,42.2c-1-1.7-0.9-3.5,0.2-4.1C8.4,37.4,10,38.3,11,40c1,1.7,0.9,3.5-0.2,4.1C9.7,44.7,8.1,43.8,7.1,42.2
		z M7,47.9c-0.6,1.1-2.5,1.1-4.1,0.2c-1.7-1-2.5-2.6-1.9-3.7c0.6-1.1,2.5-1.1,4.1-0.2C6.8,45.2,7.6,46.9,7,47.9z M6.3,52.7
		c0,1.1-1.4,2-3.1,2c-1.7,0-3.1-0.9-3.1-2s1.4-2,3.1-2C4.9,50.7,6.3,51.6,6.3,52.7z M27.6,53h2c1.6,0,2.8-0.3,3.6-0.9
		c0.8-0.6,1.2-1.6,1.2-2.9c0-1.3-0.4-2.3-1.2-3c-0.8-0.6-2-1-3.7-1h-3.8v11h1.9C27.6,56.2,27.6,53,27.6,53z M27.6,46.9h1.9
		c1,0,1.8,0.2,2.2,0.5c0.5,0.3,0.7,0.9,0.7,1.6s-0.2,1.3-0.6,1.7c-0.4,0.4-1.1,0.6-2.1,0.6h-2.2C27.6,51.3,27.6,46.9,27.6,46.9z
		 M40.5,55.9c0.5-0.3,0.9-0.6,1.3-1.1v1.4h1.8v-8.4h-1.8v1.5c-0.7-1.1-1.6-1.6-2.7-1.6s-2.1,0.4-2.9,1.2c-0.8,0.8-1.2,1.8-1.2,3.1
		c0,1.3,0.4,2.4,1.2,3.2c0.8,0.8,1.7,1.2,2.8,1.2C39.4,56.3,39.9,56.2,40.5,55.9z M36.7,52.1c0-0.8,0.3-1.5,0.8-2s1.1-0.8,1.8-0.8
		c0.7,0,1.3,0.3,1.8,0.8c0.5,0.5,0.7,1.2,0.7,2s-0.2,1.5-0.7,2s-1.1,0.8-1.8,0.8S38,54.5,37.5,54C36.9,53.5,36.7,52.9,36.7,52.1z
		 M58.1,47.8l-2.9,8.4h-2l-2-5.7l-2,5.7h-2l-2.9-8.4h1.8l2.1,6.3l2.1-6.3h1.8l2.1,6.3l2.1-6.3H58.1z M67.7,49.1c0-1.3-0.4-2.3-1.2-3
		c-0.8-0.6-2-1-3.7-1h-3.8v11H61V53h2c1.6,0,2.8-0.3,3.6-0.9C67.3,51.4,67.7,50.4,67.7,49.1z M65.2,50.7c-0.4,0.4-1.1,0.6-2.1,0.6
		H61v-4.4h1.9c1,0,1.8,0.2,2.2,0.5c0.5,0.3,0.7,0.9,0.7,1.6S65.6,50.3,65.2,50.7z M73.3,49.5c-0.9,0-1.5,0.3-2,0.9
		c-0.4,0.6-0.7,1.3-0.7,2.3v3.6h-1.8v-8.4h1.8v1.7c0.3-0.5,0.7-1,1.2-1.3c0.5-0.3,1-0.5,1.6-0.5L73.3,49.5
		C73.3,49.5,73.3,49.5,73.3,49.5z M74.4,46.1c-0.2-0.2-0.3-0.5-0.3-0.8c0-0.3,0.1-0.6,0.3-0.8c0.2-0.2,0.5-0.3,0.8-0.3
		s0.6,0.1,0.8,0.3c0.2,0.2,0.3,0.5,0.3,0.8c0,0.3-0.1,0.6-0.3,0.8c-0.2,0.2-0.5,0.3-0.8,0.3S74.7,46.4,74.4,46.1z M74.3,47.8h1.8
		v8.4h-1.8V47.8z M84.7,48.6c0.6,0.6,0.9,1.4,0.9,2.5v5.1h-1.8v-4.6c0-1.5-0.6-2.3-1.9-2.3c-0.6,0-1.1,0.2-1.6,0.6
		c-0.5,0.4-0.7,1-0.7,1.8v4.5h-1.8v-8.4h1.8v1.5c0.3-0.5,0.7-0.9,1.2-1.2c0.5-0.3,1-0.4,1.6-0.4C83.4,47.7,84.1,48,84.7,48.6z
		 M91.6,54.3l0.7,1.2c-0.6,0.6-1.3,0.8-2.1,0.8c-0.8,0-1.4-0.3-1.9-0.8c-0.5-0.5-0.8-1.2-0.8-2.1v-4.2h-1.1v-1.4h1.1v-2.6h1.8v2.6
		h2.2v1.4h-2.2v4.3c0,0.4,0.1,0.7,0.3,1c0.2,0.2,0.5,0.4,0.9,0.4C90.9,54.8,91.3,54.6,91.6,54.3z M100,53.7c0,0.8-0.3,1.4-0.9,1.9
		c-0.6,0.5-1.3,0.7-2.2,0.7c-0.6,0-1.2-0.1-1.9-0.3c-0.7-0.2-1.2-0.5-1.7-0.9l0.9-1.4c1,0.7,1.9,1.1,2.8,1.1c0.4,0,0.7-0.1,0.9-0.3
		c0.2-0.2,0.3-0.4,0.3-0.7c0-0.4-0.6-0.8-1.7-1.1c-0.1,0-0.1-0.1-0.2-0.1c-1.7-0.5-2.6-1.3-2.6-2.4c0-0.8,0.3-1.4,0.9-1.9
		c0.6-0.5,1.4-0.7,2.4-0.7c1,0,1.9,0.3,2.7,0.9l-0.7,1.3c-0.7-0.5-1.4-0.7-2.2-0.7c-0.4,0-0.8,0.1-1,0.2c-0.3,0.2-0.4,0.4-0.4,0.7
		c0,0.3,0.1,0.5,0.4,0.6c0.2,0.1,0.5,0.2,0.8,0.3s0.6,0.2,0.9,0.3c0.3,0.1,0.5,0.2,0.8,0.3c0.2,0.1,0.5,0.3,0.8,0.4
		C99.7,52.3,100,52.9,100,53.7z M13.5,40.1c0-1.7,0.9-3.1,2-3.1s2,1.4,2,3.1s-0.9,3.1-2,3.1S13.5,41.9,13.5,40.1z"/>
</g>
<g>
	<path class="st2" d="M21.4,22.5c0.1-0.1,0.3-0.2,0.4-0.4c1.5-1.5,2.3-3.4,2.3-5.6c0-2.2-0.8-4.1-2.3-5.6c-1.5-1.5-3.5-2.3-5.8-2.3
		s-4.2,0.8-5.8,2.3S8,14.3,8,16.5c0,2.2,0.8,4.1,2.3,5.6c1.5,1.5,3.5,2.3,5.8,2.3c1.1,0,2.1-0.2,3.1-0.5c2.2,1.8,5.7,1.9,5.7,1.9
		C23.1,25.1,21.9,23.4,21.4,22.5z M20.7,20.4h-9.3c-0.4,0-0.7-0.3-0.7-0.7c0-0.4,0.3-0.7,0.7-0.7h9.3c0.4,0,0.7,0.3,0.7,0.7
		C21.3,20.1,21,20.4,20.7,20.4z M20.7,17.2h-9.3c-0.4,0-0.7-0.3-0.7-0.7s0.3-0.7,0.7-0.7h9.3c0.4,0,0.7,0.3,0.7,0.7
		S21,17.2,20.7,17.2z M20.7,13.9h-9.3c-0.4,0-0.7-0.3-0.7-0.7c0-0.4,0.3-0.7,0.7-0.7h9.3c0.4,0,0.7,0.3,0.7,0.7
		C21.3,13.6,21,13.9,20.7,13.9z M14.1,4c0-1.7,0.9-3.1,2-3.1s2,1.4,2,3.1c0,1.7-0.9,3.1-2,3.1C15,7.2,14.1,5.8,14.1,4z M7.6,6.1
		c-1-1.7-0.9-3.5,0.2-4.1c1.1-0.6,2.7,0.2,3.7,1.9c1,1.7,0.9,3.5-0.2,4.1C10.2,8.6,8.6,7.7,7.6,6.1z M7.5,11.8
		C6.9,12.9,5.1,13,3.4,12c-1.7-1-2.5-2.6-1.9-3.7C2.1,7.3,4,7.2,5.6,8.2C7.3,9.1,8.1,10.8,7.5,11.8z M6.8,16.6c0,1.1-1.4,2-3.1,2
		c-1.7,0-3.1-0.9-3.1-2c0-1.1,1.4-2,3.1-2S6.8,15.5,6.8,16.6z M28.1,16.9h2c1.6,0,2.8-0.3,3.6-0.9c0.8-0.6,1.2-1.6,1.2-2.9
		c0-1.3-0.4-2.3-1.2-3c-0.8-0.6-2-1-3.7-1h-3.8v11h1.9V16.9z M28.1,10.8H30c1,0,1.8,0.2,2.2,0.5c0.5,0.3,0.7,0.9,0.7,1.6
		s-0.2,1.3-0.6,1.7c-0.4,0.4-1.1,0.6-2.1,0.6h-2.2L28.1,10.8L28.1,10.8z M41,19.9c0.5-0.3,0.9-0.6,1.3-1.1v1.4H44v-8.4h-1.8v1.5
		c-0.7-1.1-1.6-1.6-2.7-1.6s-2.1,0.4-2.9,1.2c-0.8,0.8-1.2,1.8-1.2,3.1s0.4,2.4,1.2,3.2c0.8,0.8,1.7,1.2,2.8,1.2
		C39.9,20.2,40.5,20.1,41,19.9z M37.2,16c0-0.8,0.3-1.5,0.8-2c0.5-0.5,1.1-0.8,1.8-0.8s1.3,0.3,1.8,0.8c0.5,0.5,0.7,1.2,0.7,2
		c0,0.8-0.2,1.5-0.7,2c-0.5,0.5-1.1,0.8-1.8,0.8c-0.7,0-1.3-0.3-1.8-0.8C37.5,17.4,37.2,16.8,37.2,16z M58.6,11.7l-2.9,8.4h-2
		l-2-5.7l-2,5.7h-2l-2.9-8.4h1.8l2.1,6.3l2.1-6.3h1.8l2.1,6.3l2.1-6.3H58.6z M68.3,13c0-1.3-0.4-2.3-1.2-3c-0.8-0.6-2-1-3.7-1h-3.8
		v11h1.9v-3.2h2c1.6,0,2.8-0.3,3.6-0.9C67.9,15.3,68.3,14.3,68.3,13z M65.8,14.6c-0.4,0.4-1.1,0.6-2.1,0.6h-2.2v-4.4h1.9
		c1,0,1.8,0.2,2.2,0.5c0.5,0.3,0.7,0.9,0.7,1.6C66.3,13.6,66.2,14.2,65.8,14.6z M73.8,13.4c-0.9,0-1.5,0.3-2,0.9
		c-0.4,0.6-0.7,1.3-0.7,2.3v3.6h-1.8v-8.4h1.8v1.7c0.3-0.5,0.7-1,1.2-1.3c0.5-0.3,1-0.5,1.6-0.5L73.8,13.4
		C73.9,13.4,73.8,13.4,73.8,13.4z M75,10c-0.2-0.2-0.3-0.5-0.3-0.8c0-0.3,0.1-0.6,0.3-0.8c0.2-0.2,0.5-0.3,0.8-0.3s0.6,0.1,0.8,0.3
		c0.2,0.2,0.3,0.5,0.3,0.8c0,0.3-0.1,0.6-0.3,0.8c-0.2,0.2-0.5,0.3-0.8,0.3S75.2,10.3,75,10z M74.9,11.7h1.8v8.4h-1.8V11.7z
		 M85.3,12.5c0.6,0.6,0.9,1.4,0.9,2.5v5.1h-1.8v-4.6c0-1.5-0.6-2.3-1.9-2.3c-0.6,0-1.1,0.2-1.6,0.6c-0.5,0.4-0.7,1-0.7,1.8v4.5h-1.8
		v-8.4h1.8v1.5c0.3-0.5,0.7-0.9,1.2-1.2c0.5-0.3,1-0.4,1.6-0.4C83.9,11.6,84.7,11.9,85.3,12.5z M92.2,18.2l0.7,1.2
		c-0.6,0.6-1.3,0.8-2.1,0.8s-1.4-0.3-1.9-0.8c-0.5-0.5-0.8-1.2-0.8-2.1v-4.2h-1.1v-1.4h1.1V9.1h1.8v2.6h2.2v1.4h-2.2v4.3
		c0,0.4,0.1,0.7,0.3,1c0.2,0.2,0.5,0.4,0.9,0.4C91.5,18.7,91.8,18.5,92.2,18.2z M100.5,17.6c0,0.8-0.3,1.4-0.9,1.9
		c-0.6,0.5-1.3,0.7-2.2,0.7c-0.6,0-1.2-0.1-1.9-0.3c-0.7-0.2-1.2-0.5-1.7-0.9l0.9-1.4c1,0.7,1.9,1.1,2.8,1.1c0.4,0,0.7-0.1,0.9-0.3
		c0.2-0.2,0.3-0.4,0.3-0.7c0-0.4-0.6-0.8-1.7-1.1c-0.1,0-0.1-0.1-0.2-0.1c-1.7-0.5-2.6-1.3-2.6-2.4c0-0.8,0.3-1.4,0.9-1.9
		c0.6-0.5,1.4-0.7,2.4-0.7c1,0,1.9,0.3,2.7,0.9l-0.7,1.3c-0.7-0.5-1.4-0.7-2.2-0.7c-0.4,0-0.8,0.1-1,0.2C96.1,13.5,96,13.7,96,14
		c0,0.3,0.1,0.5,0.4,0.6c0.2,0.1,0.5,0.2,0.8,0.3c0.3,0.1,0.6,0.2,0.9,0.3s0.5,0.2,0.8,0.3c0.2,0.1,0.5,0.3,0.8,0.4
		C100.3,16.2,100.5,16.8,100.5,17.6z M14,4c0-1.7,0.9-3.1,2-3.1s2,1.4,2,3.1c0,1.7-0.9,3.1-2,3.1C14.9,7.1,14,5.8,14,4z"/>
</g>
<g class="st0">
	<path class="st3" d="M62.5,58h1v3.8h-0.6v-3.1l-1.4,2.8h-0.3l-1.4-2.8v3.1h-0.6V58h1l1.2,2.5L62.5,58z M66.2,59.1
		c0.2,0.2,0.3,0.4,0.3,0.8v1.9H66v-0.4L66,61.4c-0.2,0.3-0.6,0.4-1,0.4c-0.3,0-0.5-0.1-0.7-0.3c-0.2-0.2-0.3-0.4-0.3-0.7
		c0-0.3,0.1-0.5,0.3-0.6c0.2-0.1,0.5-0.2,0.9-0.2H66V60c0-0.4-0.2-0.6-0.7-0.6c-0.3,0-0.6,0.1-0.8,0.3l-0.2-0.3
		c0.3-0.3,0.7-0.4,1.2-0.4C65.7,58.9,66,59,66.2,59.1z M66,60.5h-0.7c-0.5,0-0.7,0.2-0.7,0.5c0,0.2,0.1,0.3,0.2,0.4
		c0.1,0.1,0.3,0.1,0.5,0.1s0.4-0.1,0.5-0.2c0.2-0.1,0.2-0.3,0.2-0.5L66,60.5L66,60.5z M69.7,58.9H69l-1.2,1.3v-2.5h-0.6v4h0.6V61
		l0.5-0.5l0,0l0.9,1.3h0.7l-1.2-1.8L69.7,58.9z M72.8,60.2v0.4h-2.3l0,0c0,0.2,0.1,0.4,0.3,0.5c0.2,0.1,0.4,0.2,0.6,0.2
		c0.4,0,0.6-0.1,0.8-0.3l0.3,0.3c-0.3,0.3-0.7,0.5-1.2,0.5c-0.4,0-0.8-0.1-1-0.4c-0.3-0.3-0.4-0.6-0.4-1.1c0-0.5,0.1-0.8,0.4-1.1
		c0.3-0.3,0.6-0.4,1-0.4c0.4,0,0.7,0.1,1,0.4S72.8,59.8,72.8,60.2z M72.2,60.1c0-0.3-0.1-0.5-0.2-0.6c-0.2-0.1-0.4-0.2-0.6-0.2
		s-0.4,0.1-0.6,0.2c-0.2,0.1-0.3,0.3-0.3,0.6v0L72.2,60.1L72.2,60.1L72.2,60.1z M75.6,61.1l-0.9-2.2h-0.6c1.2,2.9,1.2,3,1.2,3
		c0,0.1,0,0.2-0.1,0.3c-0.1,0.1-0.2,0.2-0.4,0.2c-0.1,0-0.3-0.1-0.4-0.2l-0.3,0.5c0.2,0.2,0.4,0.3,0.7,0.3c0.2,0,0.4-0.1,0.5-0.2
		c0.2-0.1,0.3-0.3,0.4-0.4l1.4-3.5h-0.6L75.6,61.1z M79.7,59.3c0.3,0.3,0.4,0.6,0.4,1.1s-0.1,0.8-0.4,1.1c-0.3,0.3-0.7,0.4-1.1,0.4
		c-0.4,0-0.8-0.1-1.1-0.4c-0.3-0.3-0.4-0.6-0.4-1.1s0.1-0.8,0.4-1.1c0.3-0.3,0.7-0.4,1.1-0.4S79.5,59,79.7,59.3z M79.6,60.4
		c0-0.3-0.1-0.5-0.3-0.7c-0.2-0.2-0.4-0.3-0.7-0.3c-0.3,0-0.5,0.1-0.7,0.3c-0.2,0.2-0.3,0.4-0.3,0.7c0,0.3,0.1,0.5,0.3,0.7
		c0.2,0.2,0.4,0.3,0.7,0.3c0.3,0,0.5-0.1,0.7-0.3S79.6,60.7,79.6,60.4z M82.7,60.5c0,0.3-0.1,0.5-0.2,0.6c-0.2,0.1-0.4,0.2-0.6,0.2
		c-0.5,0-0.7-0.3-0.7-0.8v-1.6h-0.6v1.8c0,0.4,0.1,0.7,0.3,0.9c0.2,0.2,0.5,0.3,0.8,0.3c0.2,0,0.4-0.1,0.6-0.2
		c0.2-0.1,0.3-0.2,0.4-0.4l0.1-0.1v0.6h0.6v-2.9h-0.6V60.5L82.7,60.5z M85,59.1c-0.2,0.1-0.3,0.3-0.4,0.4l-0.1,0.1v-0.7H84v2.9h0.6
		v-1.2c0-0.3,0.1-0.6,0.2-0.8c0.2-0.2,0.4-0.3,0.7-0.3h0l0-0.6C85.3,58.9,85.1,58.9,85,59.1z M90.7,58.9c-0.4,0-0.8,0.2-1.1,0.6l0,0
		l0,0c-0.2-0.4-0.5-0.6-0.9-0.6c-0.2,0-0.4,0.1-0.6,0.1c-0.2,0.1-0.3,0.2-0.4,0.4l-0.1,0.1v-0.6h-0.6v2.9h0.6v-1.6
		c0-0.3,0.1-0.5,0.2-0.6c0.2-0.1,0.4-0.2,0.6-0.2c0.2,0,0.4,0.1,0.5,0.2c0.1,0.1,0.2,0.3,0.2,0.6v1.6h0.6v-1.6
		c0-0.3,0.1-0.5,0.3-0.6c0.2-0.1,0.4-0.2,0.6-0.2c0.5,0,0.7,0.3,0.7,0.8v1.6h0.6V60c0-0.4-0.1-0.7-0.3-0.9
		C91.3,59,91.1,58.9,90.7,58.9z M94.5,59.1c0.2,0.2,0.3,0.4,0.3,0.8v1.9h-0.5v-0.4l-0.1,0.1c-0.2,0.3-0.6,0.4-1,0.4
		c-0.3,0-0.5-0.1-0.7-0.3c-0.2-0.2-0.3-0.4-0.3-0.7c0-0.3,0.1-0.5,0.3-0.6c0.2-0.1,0.5-0.2,0.9-0.2h0.8V60c0-0.4-0.2-0.6-0.7-0.6
		c-0.3,0-0.6,0.1-0.8,0.3l-0.2-0.3c0.3-0.3,0.7-0.4,1.2-0.4C94,58.9,94.3,59,94.5,59.1z M94.2,60.5h-0.7c-0.5,0-0.7,0.2-0.7,0.5
		c0,0.2,0.1,0.3,0.2,0.4c0.1,0.1,0.3,0.1,0.5,0.1s0.4-0.1,0.5-0.2c0.2-0.1,0.2-0.3,0.2-0.5C94.2,60.7,94.2,60.5,94.2,60.5z
		 M96.4,59.1c-0.2,0.1-0.3,0.3-0.4,0.4L96,59.6v-0.7h-0.6v2.9H96v-1.2c0-0.3,0.1-0.6,0.2-0.8c0.2-0.2,0.4-0.3,0.7-0.3h0l0-0.6
		C96.8,58.9,96.6,58.9,96.4,59.1z M99.9,58.9h-0.7l-1.2,1.3v-2.5h-0.6v4h0.6V61l0.5-0.5l0,0l0.9,1.3h0.7l-1.2-1.8L99.9,58.9z"/>
	<path class="st3" d="M20.9,58.6c0.1-0.1,0.3-0.2,0.4-0.4c1.5-1.5,2.3-3.4,2.3-5.6c0-2.2-0.8-4.1-2.3-5.6c-1.5-1.5-3.5-2.3-5.8-2.3
		c-2.3,0-4.2,0.8-5.8,2.3c-1.5,1.5-2.3,3.4-2.3,5.6s0.8,4.1,2.3,5.6c1.5,1.5,3.5,2.3,5.8,2.3c1.1,0,2.1-0.2,3.1-0.5
		c2.2,1.8,5.7,1.9,5.7,1.9C22.6,61.2,21.4,59.5,20.9,58.6z M20.2,56.5h-9.3c-0.4,0-0.7-0.3-0.7-0.7c0-0.4,0.3-0.7,0.7-0.7h9.3
		c0.4,0,0.7,0.3,0.7,0.7C20.8,56.2,20.5,56.5,20.2,56.5z M20.2,53.3h-9.3c-0.4,0-0.7-0.3-0.7-0.7c0-0.4,0.3-0.7,0.7-0.7h9.3
		c0.4,0,0.7,0.3,0.7,0.7C20.8,53,20.5,53.3,20.2,53.3z M20.2,50h-9.3c-0.4,0-0.7-0.3-0.7-0.7c0-0.4,0.3-0.7,0.7-0.7h9.3
		c0.4,0,0.7,0.3,0.7,0.7C20.8,49.7,20.5,50,20.2,50z M13.5,40.1c0-1.7,0.9-3.1,2-3.1s2,1.4,2,3.1s-0.9,3.1-2,3.1
		S13.5,41.9,13.5,40.1z M7.1,42.2c-1-1.7-0.9-3.5,0.2-4.1C8.4,37.4,10,38.3,11,40c1,1.7,0.9,3.5-0.2,4.1C9.7,44.7,8.1,43.8,7.1,42.2
		z M7,47.9c-0.6,1.1-2.5,1.1-4.1,0.2c-1.7-1-2.5-2.6-1.9-3.7c0.6-1.1,2.5-1.1,4.1-0.2C6.8,45.2,7.6,46.9,7,47.9z M6.3,52.7
		c0,1.1-1.4,2-3.1,2c-1.7,0-3.1-0.9-3.1-2s1.4-2,3.1-2C4.9,50.7,6.3,51.6,6.3,52.7z M27.6,53h2c1.6,0,2.8-0.3,3.6-0.9
		c0.8-0.6,1.2-1.6,1.2-2.9c0-1.3-0.4-2.3-1.2-3c-0.8-0.6-2-1-3.7-1h-3.8v11h1.9C27.6,56.2,27.6,53,27.6,53z M27.6,46.9h1.9
		c1,0,1.8,0.2,2.2,0.5c0.5,0.3,0.7,0.9,0.7,1.6s-0.2,1.3-0.6,1.7c-0.4,0.4-1.1,0.6-2.1,0.6h-2.2C27.6,51.3,27.6,46.9,27.6,46.9z
		 M40.5,55.9c0.5-0.3,0.9-0.6,1.3-1.1v1.4h1.8v-8.4h-1.8v1.5c-0.7-1.1-1.6-1.6-2.7-1.6s-2.1,0.4-2.9,1.2c-0.8,0.8-1.2,1.8-1.2,3.1
		c0,1.3,0.4,2.4,1.2,3.2c0.8,0.8,1.7,1.2,2.8,1.2C39.4,56.3,39.9,56.2,40.5,55.9z M36.7,52.1c0-0.8,0.3-1.5,0.8-2s1.1-0.8,1.8-0.8
		c0.7,0,1.3,0.3,1.8,0.8c0.5,0.5,0.7,1.2,0.7,2s-0.2,1.5-0.7,2s-1.1,0.8-1.8,0.8S38,54.5,37.5,54C36.9,53.5,36.7,52.9,36.7,52.1z
		 M58.1,47.8l-2.9,8.4h-2l-2-5.7l-2,5.7h-2l-2.9-8.4h1.8l2.1,6.3l2.1-6.3h1.8l2.1,6.3l2.1-6.3H58.1z M67.7,49.1c0-1.3-0.4-2.3-1.2-3
		c-0.8-0.6-2-1-3.7-1h-3.8v11H61V53h2c1.6,0,2.8-0.3,3.6-0.9C67.3,51.4,67.7,50.4,67.7,49.1z M65.2,50.7c-0.4,0.4-1.1,0.6-2.1,0.6
		H61v-4.4h1.9c1,0,1.8,0.2,2.2,0.5c0.5,0.3,0.7,0.9,0.7,1.6S65.6,50.3,65.2,50.7z M73.3,49.5c-0.9,0-1.5,0.3-2,0.9
		c-0.4,0.6-0.7,1.3-0.7,2.3v3.6h-1.8v-8.4h1.8v1.7c0.3-0.5,0.7-1,1.2-1.3c0.5-0.3,1-0.5,1.6-0.5L73.3,49.5
		C73.3,49.5,73.3,49.5,73.3,49.5z M74.4,46.1c-0.2-0.2-0.3-0.5-0.3-0.8c0-0.3,0.1-0.6,0.3-0.8c0.2-0.2,0.5-0.3,0.8-0.3
		s0.6,0.1,0.8,0.3c0.2,0.2,0.3,0.5,0.3,0.8c0,0.3-0.1,0.6-0.3,0.8c-0.2,0.2-0.5,0.3-0.8,0.3S74.7,46.4,74.4,46.1z M74.3,47.8h1.8
		v8.4h-1.8V47.8z M84.7,48.6c0.6,0.6,0.9,1.4,0.9,2.5v5.1h-1.8v-4.6c0-1.5-0.6-2.3-1.9-2.3c-0.6,0-1.1,0.2-1.6,0.6
		c-0.5,0.4-0.7,1-0.7,1.8v4.5h-1.8v-8.4h1.8v1.5c0.3-0.5,0.7-0.9,1.2-1.2c0.5-0.3,1-0.4,1.6-0.4C83.4,47.7,84.1,48,84.7,48.6z
		 M91.6,54.3l0.7,1.2c-0.6,0.6-1.3,0.8-2.1,0.8c-0.8,0-1.4-0.3-1.9-0.8c-0.5-0.5-0.8-1.2-0.8-2.1v-4.2h-1.1v-1.4h1.1v-2.6h1.8v2.6
		h2.2v1.4h-2.2v4.3c0,0.4,0.1,0.7,0.3,1c0.2,0.2,0.5,0.4,0.9,0.4C90.9,54.8,91.3,54.6,91.6,54.3z M100,53.7c0,0.8-0.3,1.4-0.9,1.9
		c-0.6,0.5-1.3,0.7-2.2,0.7c-0.6,0-1.2-0.1-1.9-0.3c-0.7-0.2-1.2-0.5-1.7-0.9l0.9-1.4c1,0.7,1.9,1.1,2.8,1.1c0.4,0,0.7-0.1,0.9-0.3
		c0.2-0.2,0.3-0.4,0.3-0.7c0-0.4-0.6-0.8-1.7-1.1c-0.1,0-0.1-0.1-0.2-0.1c-1.7-0.5-2.6-1.3-2.6-2.4c0-0.8,0.3-1.4,0.9-1.9
		c0.6-0.5,1.4-0.7,2.4-0.7c1,0,1.9,0.3,2.7,0.9l-0.7,1.3c-0.7-0.5-1.4-0.7-2.2-0.7c-0.4,0-0.8,0.1-1,0.2c-0.3,0.2-0.4,0.4-0.4,0.7
		c0,0.3,0.1,0.5,0.4,0.6c0.2,0.1,0.5,0.2,0.8,0.3s0.6,0.2,0.9,0.3c0.3,0.1,0.5,0.2,0.8,0.3c0.2,0.1,0.5,0.3,0.8,0.4
		C99.7,52.3,100,52.9,100,53.7z M13.5,40.1c0-1.7,0.9-3.1,2-3.1s2,1.4,2,3.1s-0.9,3.1-2,3.1S13.5,41.9,13.5,40.1z"/>
</g>
</svg>
