<?xml version="1.0" encoding="utf-8"?>
<!-- Generator: Adobe Illustrator 16.0.0, SVG Export Plug-In . SVG Version: 6.00 Build 0)  -->
<!DOCTYPE svg PUBLIC "-//W3C//DTD SVG 1.1//EN" "http://www.w3.org/Graphics/SVG/1.1/DTD/svg11.dtd">
<svg version="1.1" id="Layer_1" xmlns="http://www.w3.org/2000/svg" xmlns:xlink="http://www.w3.org/1999/xlink" x="0px" y="0px"
	 width="101.083px" height="26.654px" viewBox="0 0 101.083 26.654" enable-background="new 0 0 101.083 26.654"
	 xml:space="preserve">
<g display="none">
	<path display="inline" d="M62.458,57.996h0.967v3.811h-0.596v-3.115l-1.397,2.777h-0.329l-1.393-2.778v3.116h-0.596v-3.811h0.971
		l1.188,2.469L62.458,57.996z M66.2,59.133c0.211,0.17,0.317,0.438,0.317,0.805v1.869h-0.506v-0.442l-0.052,0.062
		c-0.237,0.283-0.561,0.427-0.959,0.427c-0.297,0-0.547-0.085-0.742-0.253c-0.192-0.167-0.291-0.394-0.291-0.673
		c0-0.277,0.104-0.488,0.31-0.626c0.207-0.14,0.494-0.211,0.853-0.211h0.832v-0.14c0-0.409-0.229-0.615-0.683-0.615
		c-0.271,0-0.555,0.096-0.846,0.287l-0.244-0.343c0.347-0.267,0.742-0.401,1.179-0.401C65.706,58.877,65.986,58.963,66.2,59.133z
		 M65.956,60.462h-0.728c-0.463,0-0.698,0.15-0.698,0.45c0,0.152,0.061,0.271,0.18,0.354c0.115,0.078,0.274,0.118,0.479,0.118
		s0.383-0.058,0.535-0.172c0.154-0.116,0.232-0.274,0.232-0.472V60.462L65.956,60.462z M69.678,58.921h-0.717l-1.237,1.294v-2.456
		h-0.562v4.048h0.562V60.99l0.481-0.488l0.021,0.03l0.864,1.275h0.684l-1.184-1.75L69.678,58.921z M72.784,60.209v0.396h-2.312
		l0.002,0.031c0.017,0.222,0.118,0.403,0.306,0.539c0.186,0.134,0.399,0.202,0.637,0.202c0.362,0,0.646-0.112,0.842-0.334
		l0.313,0.343c-0.308,0.308-0.711,0.464-1.198,0.464c-0.404,0-0.752-0.136-1.035-0.404c-0.282-0.268-0.426-0.633-0.426-1.086
		c0-0.451,0.146-0.815,0.434-1.082c0.289-0.267,0.633-0.401,1.023-0.401c0.393,0,0.729,0.119,1.002,0.354
		S72.784,59.795,72.784,60.209z M72.222,60.148c0-0.256-0.081-0.455-0.243-0.593c-0.159-0.137-0.359-0.206-0.592-0.206
		c-0.233,0-0.444,0.072-0.629,0.213c-0.188,0.146-0.283,0.341-0.283,0.586v0.029h1.746L72.222,60.148L72.222,60.148z M75.602,61.139
		l-0.9-2.219h-0.601c1.176,2.917,1.176,2.975,1.176,2.999c0,0.125-0.046,0.241-0.138,0.346c-0.092,0.106-0.213,0.159-0.359,0.159
		c-0.135,0-0.268-0.055-0.394-0.165l-0.253,0.451c0.207,0.179,0.438,0.271,0.693,0.271c0.186,0,0.356-0.055,0.51-0.16
		c0.151-0.106,0.272-0.256,0.354-0.441l1.41-3.458H76.5L75.602,61.139z M79.749,59.309c0.289,0.285,0.436,0.642,0.436,1.056
		s-0.146,0.771-0.436,1.057c-0.287,0.286-0.653,0.432-1.086,0.432c-0.434,0-0.8-0.146-1.086-0.432
		c-0.289-0.287-0.436-0.643-0.436-1.057s0.146-0.771,0.436-1.056c0.286-0.287,0.652-0.432,1.086-0.432S79.461,59.021,79.749,59.309z
		 M79.622,60.363c0-0.289-0.092-0.53-0.271-0.715c-0.182-0.184-0.411-0.275-0.688-0.275c-0.275,0-0.509,0.093-0.688,0.275
		c-0.181,0.184-0.271,0.426-0.271,0.715c0,0.291,0.092,0.531,0.271,0.716c0.18,0.185,0.411,0.276,0.688,0.276
		c0.275,0,0.508-0.093,0.688-0.276S79.622,60.654,79.622,60.363z M82.727,60.485c0,0.28-0.084,0.497-0.248,0.646
		c-0.163,0.146-0.357,0.22-0.578,0.22c-0.467,0-0.705-0.284-0.705-0.843V58.92h-0.561v1.774c0,0.375,0.1,0.664,0.299,0.859
		c0.197,0.197,0.461,0.297,0.783,0.297c0.197,0,0.384-0.052,0.554-0.15c0.17-0.102,0.306-0.24,0.401-0.415l0.055-0.101v0.621h0.562
		V58.92h-0.562V60.485L82.727,60.485z M84.98,59.055c-0.168,0.115-0.301,0.264-0.397,0.443L84.527,59.6v-0.679h-0.562v2.886h0.562
		v-1.231c0-0.342,0.08-0.617,0.239-0.82c0.16-0.206,0.4-0.312,0.715-0.312h0.004l-0.005-0.565
		C85.306,58.887,85.138,58.945,84.98,59.055z M90.734,58.877c-0.425,0-0.782,0.188-1.067,0.562l-0.029,0.04l-0.021-0.046
		c-0.162-0.376-0.463-0.558-0.919-0.558c-0.2,0-0.391,0.051-0.563,0.149c-0.172,0.101-0.305,0.238-0.391,0.414l-0.056,0.112V58.92
		h-0.562v2.887h0.562v-1.563c0-0.281,0.084-0.498,0.248-0.646c0.164-0.146,0.358-0.221,0.579-0.221c0.223,0,0.389,0.069,0.492,0.208
		c0.104,0.136,0.156,0.349,0.156,0.635v1.587h0.562v-1.608c0.007-0.267,0.094-0.472,0.257-0.611
		c0.161-0.139,0.353-0.209,0.569-0.209c0.468,0,0.703,0.283,0.703,0.844v1.586h0.562v-1.774c0-0.373-0.102-0.662-0.299-0.859
		C91.32,58.977,91.057,58.877,90.734,58.877z M94.471,59.133c0.211,0.17,0.318,0.438,0.318,0.805v1.869h-0.506v-0.442l-0.053,0.062
		c-0.236,0.283-0.559,0.427-0.957,0.427c-0.298,0-0.548-0.085-0.742-0.253c-0.193-0.167-0.291-0.394-0.291-0.673
		c0-0.277,0.104-0.488,0.309-0.626c0.207-0.14,0.494-0.211,0.853-0.211h0.831v-0.14c0-0.409-0.229-0.615-0.682-0.615
		c-0.27,0-0.555,0.096-0.846,0.287l-0.244-0.343c0.346-0.267,0.742-0.401,1.178-0.401C93.978,58.877,94.258,58.963,94.471,59.133z
		 M94.228,60.462H93.5c-0.463,0-0.697,0.15-0.697,0.45c0,0.152,0.06,0.271,0.178,0.354c0.115,0.078,0.275,0.118,0.479,0.118
		s0.383-0.058,0.535-0.172c0.155-0.116,0.233-0.274,0.233-0.472V60.462z M96.448,59.055c-0.166,0.114-0.301,0.264-0.396,0.443
		L95.997,59.6v-0.679h-0.562v2.886h0.562v-1.231c0-0.342,0.08-0.617,0.237-0.82c0.16-0.206,0.399-0.312,0.716-0.312h0.004
		l-0.004-0.565C96.773,58.887,96.605,58.945,96.448,59.055z M99.87,58.921h-0.717l-1.236,1.294v-2.456h-0.562v4.048h0.562V60.99
		l0.481-0.488l0.021,0.03l0.865,1.275h0.682l-1.182-1.75L99.87,58.921z"/>
	<path display="inline" d="M20.887,58.59c0.139-0.121,0.276-0.246,0.41-0.379c1.538-1.528,2.307-3.398,2.307-5.609
		c0-2.21-0.768-4.081-2.307-5.608c-1.539-1.529-3.461-2.292-5.769-2.292c-2.307,0-4.229,0.764-5.768,2.292
		c-1.539,1.527-2.308,3.397-2.308,5.608s0.769,4.081,2.308,5.609c1.538,1.529,3.46,2.293,5.768,2.293
		c1.108,0,2.126-0.178,3.057-0.531c2.214,1.793,5.738,1.863,5.738,1.863C22.62,61.228,21.398,59.453,20.887,58.59z M20.158,56.528
		h-9.261c-0.361,0-0.653-0.292-0.653-0.652c0-0.359,0.292-0.652,0.653-0.652h9.261c0.36,0,0.652,0.293,0.652,0.652
		C20.811,56.236,20.519,56.528,20.158,56.528z M20.158,53.254h-9.261c-0.361,0-0.653-0.292-0.653-0.652
		c0-0.359,0.292-0.651,0.653-0.651h9.261c0.36,0,0.652,0.292,0.652,0.651C20.81,52.962,20.519,53.254,20.158,53.254z M20.158,49.981
		h-9.261c-0.361,0-0.653-0.292-0.653-0.652c0-0.361,0.292-0.653,0.653-0.653h9.261c0.36,0,0.652,0.292,0.652,0.653
		C20.811,49.689,20.519,49.981,20.158,49.981z M13.542,40.139c0-1.723,0.889-3.119,1.985-3.119c1.096,0,1.985,1.396,1.985,3.119
		s-0.889,3.12-1.985,3.12C14.431,43.259,13.542,41.862,13.542,40.139z M7.127,42.167c-0.96-1.663-0.88-3.505,0.178-4.116
		c1.058-0.61,2.693,0.242,3.653,1.904c0.959,1.663,0.88,3.505-0.178,4.115C9.723,44.682,8.087,43.83,7.127,42.167z M7.004,47.916
		c-0.611,1.058-2.454,1.138-4.116,0.178c-1.663-0.96-2.515-2.596-1.904-3.653c0.611-1.058,2.454-1.138,4.116-0.178
		C6.763,45.222,7.615,46.858,7.004,47.916z M6.269,52.686c0,1.098-1.396,1.985-3.12,1.985c-1.723,0-3.12-0.89-3.12-1.985
		c0-1.095,1.397-1.983,3.12-1.983C4.872,50.701,6.269,51.59,6.269,52.686z M27.578,52.977h1.956c1.619,0,2.82-0.311,3.603-0.93
		c0.783-0.621,1.174-1.599,1.174-2.935c0-1.335-0.383-2.322-1.151-2.964c-0.768-0.641-1.987-0.962-3.658-0.962h-3.785v11.022h1.861
		V52.977z M27.578,46.874h1.892c1.009,0,1.75,0.158,2.224,0.473c0.473,0.315,0.71,0.854,0.71,1.617s-0.187,1.34-0.56,1.734
		c-0.373,0.395-1.075,0.592-2.105,0.592h-2.161V46.874z M40.453,55.949c0.521-0.259,0.949-0.63,1.285-1.112v1.372h1.767v-8.39
		h-1.767v1.451c-0.715-1.051-1.624-1.577-2.728-1.577c-1.104,0-2.061,0.39-2.87,1.167c-0.81,0.778-1.214,1.819-1.214,3.122
		c0,1.306,0.394,2.355,1.183,3.154c0.788,0.799,1.713,1.198,2.775,1.198C39.409,56.335,39.932,56.207,40.453,55.949z M36.692,52.054
		c0-0.804,0.252-1.474,0.757-2.01c0.505-0.536,1.109-0.804,1.814-0.804c0.704,0,1.298,0.268,1.782,0.804
		c0.483,0.537,0.726,1.204,0.726,2.003s-0.242,1.453-0.726,1.963s-1.072,0.765-1.766,0.765c-0.694,0-1.298-0.252-1.814-0.757
		C36.949,53.513,36.692,52.858,36.692,52.054z M58.09,47.82l-2.9,8.39h-2.02l-1.986-5.74l-1.987,5.74h-2.018l-2.902-8.39h1.83
		l2.082,6.339l2.082-6.339H52.1l2.081,6.339l2.082-6.339H58.09z M67.709,49.113c0-1.334-0.385-2.322-1.15-2.964
		c-0.77-0.641-1.988-0.962-3.659-0.962h-3.784v11.022h1.861v-3.232h1.954c1.618,0,2.819-0.311,3.604-0.93
		C67.316,51.426,67.709,50.448,67.709,49.113z M65.241,50.697c-0.373,0.396-1.074,0.593-2.104,0.593h-2.16v-4.415h1.892
		c1.01,0,1.75,0.158,2.225,0.473c0.474,0.315,0.709,0.854,0.709,1.617S65.613,50.304,65.241,50.697z M73.258,49.476
		c-0.871,0-1.528,0.284-1.971,0.853c-0.441,0.567-0.662,1.329-0.662,2.286v3.596h-1.767V47.82h1.767v1.688
		c0.283-0.525,0.67-0.957,1.16-1.293c0.487-0.336,1.006-0.51,1.553-0.521l0.016,1.782C73.322,49.476,73.292,49.476,73.258,49.476z
		 M74.441,46.148c-0.221-0.221-0.33-0.482-0.33-0.789c0-0.305,0.109-0.566,0.33-0.789c0.222-0.221,0.483-0.331,0.789-0.331
		s0.567,0.11,0.788,0.331c0.223,0.222,0.331,0.484,0.331,0.789c0,0.306-0.108,0.568-0.331,0.789
		c-0.221,0.222-0.482,0.331-0.788,0.331S74.663,46.369,74.441,46.148z M74.333,47.82h1.766v8.39h-1.766V47.82z M84.715,48.561
		c0.584,0.579,0.875,1.414,0.875,2.507v5.142h-1.766v-4.604c0-1.545-0.643-2.317-1.925-2.317c-0.61,0-1.142,0.202-1.594,0.606
		c-0.451,0.405-0.679,0.996-0.679,1.774v4.541h-1.766v-8.39h1.766v1.529c0.285-0.515,0.677-0.92,1.177-1.214
		c0.499-0.294,1.036-0.441,1.614-0.441C83.368,47.694,84.131,47.983,84.715,48.561z M91.613,54.254l0.728,1.245
		c-0.621,0.558-1.307,0.836-2.059,0.836c-0.753,0-1.395-0.261-1.925-0.78c-0.53-0.521-0.797-1.223-0.797-2.104v-4.21h-1.058V47.82
		h1.058v-2.633h1.769v2.633h2.207v1.42h-2.207v4.257c0,0.399,0.104,0.718,0.313,0.954c0.21,0.235,0.505,0.354,0.883,0.354
		C90.904,54.806,91.267,54.621,91.613,54.254z M99.971,53.701c0,0.799-0.289,1.438-0.867,1.916
		c-0.578,0.478-1.318,0.718-2.223,0.718c-0.61,0-1.244-0.11-1.9-0.331c-0.658-0.221-1.238-0.531-1.742-0.93l0.852-1.373
		c0.978,0.735,1.925,1.104,2.839,1.104c0.397,0,0.715-0.093,0.944-0.276c0.23-0.183,0.349-0.418,0.349-0.7
		c0-0.42-0.558-0.8-1.673-1.137c-0.084-0.03-0.146-0.052-0.188-0.062c-1.745-0.473-2.616-1.262-2.616-2.365
		c0-0.778,0.301-1.4,0.905-1.869c0.604-0.468,1.392-0.702,2.356-0.702c0.967,0,1.882,0.284,2.744,0.853l-0.662,1.309
		c-0.685-0.452-1.426-0.678-2.225-0.678c-0.42,0-0.762,0.077-1.023,0.229c-0.264,0.153-0.396,0.382-0.396,0.687
		c0,0.272,0.138,0.473,0.41,0.6c0.188,0.095,0.454,0.185,0.796,0.269s0.645,0.168,0.906,0.253c0.264,0.084,0.52,0.179,0.766,0.284
		c0.247,0.104,0.514,0.252,0.797,0.44C99.688,52.314,99.971,52.902,99.971,53.701z M13.508,40.134c0-1.72,0.888-3.115,1.982-3.115
		c1.094,0,1.982,1.396,1.982,3.115s-0.888,3.115-1.982,3.115C14.396,43.249,13.508,41.855,13.508,40.134z"/>
</g>
<g>
	<path fill="#F36E21" d="M21.411,22.494c0.139-0.121,0.276-0.246,0.41-0.379c1.54-1.529,2.309-3.4,2.309-5.611
		c0-2.213-0.769-4.084-2.309-5.613c-1.539-1.529-3.462-2.295-5.771-2.295c-2.309,0-4.232,0.766-5.771,2.295
		c-1.539,1.529-2.309,3.4-2.309,5.613c0,2.211,0.77,4.082,2.309,5.611c1.54,1.528,3.463,2.295,5.771,2.295
		c1.108,0,2.127-0.179,3.059-0.531c2.216,1.793,5.741,1.863,5.741,1.863C23.145,25.135,21.922,23.359,21.411,22.494z M20.682,20.432
		h-9.267c-0.361,0-0.653-0.291-0.653-0.651c0-0.361,0.292-0.654,0.653-0.654h9.267c0.361,0,0.653,0.293,0.653,0.654
		C21.335,20.139,21.042,20.432,20.682,20.432z M20.682,17.156h-9.267c-0.361,0-0.653-0.291-0.653-0.652s0.292-0.654,0.653-0.654
		h9.267c0.361,0,0.653,0.293,0.653,0.654S21.042,17.156,20.682,17.156z M20.682,13.881h-9.267c-0.361,0-0.653-0.293-0.653-0.652
		c0-0.36,0.292-0.653,0.653-0.653h9.267c0.361,0,0.653,0.293,0.653,0.653C21.335,13.588,21.042,13.881,20.682,13.881z M14.062,4.033
		c0-1.725,0.889-3.122,1.986-3.122c1.097,0,1.987,1.396,1.987,3.122c0,1.725-0.89,3.12-1.987,3.12
		C14.951,7.154,14.062,5.757,14.062,4.033z M7.643,6.062c-0.96-1.664-0.881-3.507,0.178-4.119c1.059-0.61,2.695,0.242,3.656,1.905
		c0.96,1.664,0.881,3.507-0.178,4.119C10.24,8.578,8.603,7.726,7.643,6.062z M7.52,11.814c-0.611,1.06-2.456,1.14-4.119,0.179
		c-1.664-0.961-2.517-2.599-1.905-3.655c0.611-1.061,2.456-1.138,4.119-0.179C7.278,9.119,8.131,10.756,7.52,11.814z M6.784,16.588
		c0,1.096-1.397,1.986-3.122,1.986c-1.724,0-3.121-0.892-3.121-1.986c0-1.098,1.397-1.986,3.122-1.986S6.784,15.49,6.784,16.588z
		 M28.105,16.879h1.957c1.62,0,2.821-0.312,3.605-0.932c0.783-0.621,1.175-1.601,1.175-2.937c0-1.335-0.384-2.324-1.152-2.965
		c-0.768-0.643-1.988-0.963-3.661-0.963h-3.786v11.028h1.862V16.879z M28.105,10.771h1.894c1.01,0,1.751,0.158,2.225,0.476
		c0.473,0.313,0.71,0.854,0.71,1.616s-0.187,1.341-0.56,1.734c-0.374,0.396-1.076,0.592-2.106,0.592h-2.162L28.105,10.771
		L28.105,10.771z M40.988,19.852c0.521-0.258,0.949-0.627,1.286-1.11v1.373h1.768v-8.396h-1.768v1.451
		c-0.715-1.051-1.625-1.577-2.729-1.577s-2.062,0.39-2.872,1.167c-0.81,0.779-1.215,1.82-1.215,3.125s0.395,2.355,1.184,3.156
		c0.789,0.799,1.714,1.199,2.776,1.199C39.944,20.238,40.467,20.109,40.988,19.852z M37.225,15.955c0-0.806,0.252-1.476,0.757-2.013
		c0.505-0.536,1.11-0.805,1.814-0.805s1.299,0.269,1.783,0.805c0.483,0.537,0.726,1.205,0.726,2.005
		c0,0.799-0.242,1.454-0.726,1.965c-0.484,0.51-1.073,0.766-1.768,0.766c-0.694,0-1.299-0.254-1.814-0.758
		C37.483,17.414,37.225,16.76,37.225,15.955z M58.635,11.719l-2.902,8.396h-2.02l-1.988-5.744l-1.987,5.744h-2.02l-2.903-8.396
		h1.831l2.083,6.344l2.082-6.344h1.832l2.082,6.344l2.082-6.344H58.635z M68.26,13.012c0-1.335-0.383-2.324-1.15-2.965
		c-0.77-0.642-1.988-0.963-3.662-0.963h-3.787v11.028h1.863v-3.233h1.955c1.621,0,2.822-0.312,3.605-0.932
		C67.868,15.326,68.26,14.348,68.26,13.012z M65.792,14.598c-0.373,0.396-1.076,0.592-2.107,0.592h-2.16v-4.418h1.893
		c1.012,0,1.752,0.158,2.227,0.476c0.475,0.313,0.711,0.854,0.711,1.617C66.35,13.625,66.165,14.203,65.792,14.598z M73.813,13.375
		c-0.873,0-1.529,0.283-1.973,0.852c-0.441,0.569-0.662,1.332-0.662,2.289v3.599h-1.766v-8.396h1.766v1.688
		c0.285-0.525,0.672-0.957,1.16-1.293c0.49-0.337,1.008-0.511,1.555-0.521l0.016,1.782C73.877,13.375,73.846,13.375,73.813,13.375z
		 M74.997,10.046c-0.221-0.222-0.33-0.483-0.33-0.788c0-0.306,0.109-0.568,0.33-0.789c0.223-0.222,0.484-0.332,0.789-0.332
		s0.568,0.11,0.789,0.332c0.221,0.221,0.332,0.483,0.332,0.789c0,0.305-0.111,0.567-0.332,0.788
		c-0.221,0.222-0.484,0.331-0.789,0.331S75.219,10.268,74.997,10.046z M74.887,11.719h1.768v8.396h-1.768V11.719z M85.276,12.459
		c0.584,0.58,0.877,1.416,0.877,2.51v5.146h-1.77v-4.608c0-1.547-0.643-2.32-1.926-2.32c-0.607,0-1.141,0.203-1.594,0.607
		c-0.451,0.406-0.678,0.998-0.678,1.774v4.545h-1.768v-8.395h1.768v1.529c0.283-0.515,0.676-0.92,1.176-1.214
		c0.498-0.294,1.037-0.441,1.617-0.441C83.928,11.592,84.692,11.882,85.276,12.459z M92.18,18.156l0.725,1.245
		c-0.621,0.56-1.307,0.839-2.059,0.839s-1.395-0.263-1.926-0.781c-0.531-0.521-0.795-1.224-0.795-2.107v-4.213h-1.059v-1.42h1.059
		V9.084h1.766v2.635H92.1v1.42h-2.209v4.26c0,0.4,0.105,0.72,0.316,0.955c0.211,0.236,0.506,0.355,0.883,0.355
		C91.469,18.709,91.833,18.525,92.18,18.156z M100.542,17.604c0,0.799-0.289,1.439-0.867,1.918c-0.58,0.479-1.32,0.718-2.225,0.718
		c-0.611,0-1.244-0.109-1.902-0.332c-0.656-0.222-1.238-0.529-1.742-0.931l0.852-1.373c0.98,0.736,1.924,1.105,2.84,1.105
		c0.4,0,0.715-0.094,0.947-0.277c0.23-0.184,0.348-0.418,0.348-0.701c0-0.422-0.559-0.799-1.674-1.137
		c-0.084-0.031-0.145-0.053-0.188-0.062c-1.746-0.476-2.619-1.265-2.619-2.367c0-0.779,0.303-1.402,0.906-1.871
		c0.605-0.467,1.393-0.701,2.357-0.701c0.969,0,1.883,0.284,2.746,0.852l-0.662,1.312c-0.684-0.453-1.426-0.68-2.225-0.68
		c-0.422,0-0.764,0.075-1.025,0.229c-0.264,0.154-0.395,0.383-0.395,0.688c0,0.272,0.137,0.473,0.41,0.6
		c0.189,0.094,0.455,0.184,0.797,0.268c0.342,0.087,0.643,0.171,0.906,0.255s0.518,0.178,0.766,0.282
		c0.248,0.105,0.514,0.252,0.797,0.441C100.258,16.215,100.542,16.805,100.542,17.604z M14.028,4.029
		c0-1.722,0.888-3.116,1.983-3.116c1.095,0,1.983,1.396,1.983,3.116c0,1.722-0.888,3.117-1.983,3.117
		C14.916,7.145,14.028,5.75,14.028,4.029z"/>
</g>
<g display="none">
	<path display="inline" fill="#FFFFFF" d="M62.458,57.996h0.967v3.811h-0.596v-3.115l-1.397,2.777h-0.329l-1.393-2.778v3.116h-0.596
		v-3.811h0.971l1.188,2.469L62.458,57.996z M66.2,59.133c0.211,0.17,0.317,0.438,0.317,0.805v1.869h-0.506v-0.442l-0.052,0.062
		c-0.237,0.283-0.561,0.427-0.959,0.427c-0.297,0-0.547-0.085-0.742-0.253c-0.192-0.167-0.291-0.394-0.291-0.673
		c0-0.277,0.104-0.488,0.31-0.626c0.207-0.14,0.494-0.211,0.853-0.211h0.832v-0.14c0-0.409-0.229-0.615-0.683-0.615
		c-0.271,0-0.555,0.096-0.846,0.287l-0.244-0.343c0.347-0.267,0.742-0.401,1.179-0.401C65.706,58.877,65.986,58.963,66.2,59.133z
		 M65.956,60.462h-0.728c-0.463,0-0.698,0.15-0.698,0.45c0,0.152,0.061,0.271,0.18,0.354c0.115,0.078,0.274,0.118,0.479,0.118
		s0.383-0.058,0.535-0.172c0.154-0.116,0.232-0.274,0.232-0.472V60.462L65.956,60.462z M69.678,58.921h-0.717l-1.237,1.294v-2.456
		h-0.562v4.048h0.562V60.99l0.481-0.488l0.021,0.03l0.864,1.275h0.684l-1.184-1.75L69.678,58.921z M72.784,60.209v0.396h-2.312
		l0.002,0.031c0.017,0.222,0.118,0.403,0.306,0.539c0.186,0.134,0.399,0.202,0.637,0.202c0.362,0,0.646-0.112,0.842-0.334
		l0.313,0.343c-0.308,0.308-0.711,0.464-1.198,0.464c-0.404,0-0.752-0.136-1.035-0.404c-0.282-0.268-0.426-0.633-0.426-1.086
		c0-0.451,0.146-0.815,0.434-1.082c0.289-0.267,0.633-0.401,1.023-0.401c0.393,0,0.729,0.119,1.002,0.354
		S72.784,59.795,72.784,60.209z M72.222,60.148c0-0.256-0.081-0.455-0.243-0.593c-0.159-0.137-0.359-0.206-0.592-0.206
		c-0.233,0-0.444,0.072-0.629,0.213c-0.188,0.146-0.283,0.341-0.283,0.586v0.029h1.746L72.222,60.148L72.222,60.148z M75.602,61.139
		l-0.9-2.219h-0.601c1.176,2.917,1.176,2.975,1.176,2.999c0,0.125-0.046,0.241-0.138,0.346c-0.092,0.106-0.213,0.159-0.359,0.159
		c-0.135,0-0.268-0.055-0.394-0.165l-0.253,0.451c0.207,0.179,0.438,0.271,0.693,0.271c0.186,0,0.356-0.055,0.51-0.16
		c0.151-0.106,0.272-0.256,0.354-0.441l1.41-3.458H76.5L75.602,61.139z M79.749,59.309c0.289,0.285,0.436,0.642,0.436,1.056
		s-0.146,0.771-0.436,1.057c-0.287,0.286-0.653,0.432-1.086,0.432c-0.434,0-0.8-0.146-1.086-0.432
		c-0.289-0.287-0.436-0.643-0.436-1.057s0.146-0.771,0.436-1.056c0.286-0.287,0.652-0.432,1.086-0.432S79.461,59.021,79.749,59.309z
		 M79.622,60.363c0-0.289-0.092-0.53-0.271-0.715c-0.182-0.184-0.411-0.275-0.688-0.275c-0.275,0-0.509,0.093-0.688,0.275
		c-0.181,0.184-0.271,0.426-0.271,0.715c0,0.291,0.092,0.531,0.271,0.716c0.18,0.185,0.411,0.276,0.688,0.276
		c0.275,0,0.508-0.093,0.688-0.276S79.622,60.654,79.622,60.363z M82.727,60.485c0,0.28-0.084,0.497-0.248,0.646
		c-0.163,0.146-0.357,0.22-0.578,0.22c-0.467,0-0.705-0.284-0.705-0.843V58.92h-0.561v1.774c0,0.375,0.1,0.664,0.299,0.859
		c0.197,0.197,0.461,0.297,0.783,0.297c0.197,0,0.384-0.052,0.554-0.15c0.17-0.102,0.306-0.24,0.401-0.415l0.055-0.101v0.621h0.562
		V58.92h-0.562V60.485L82.727,60.485z M84.98,59.055c-0.168,0.115-0.301,0.264-0.397,0.443L84.527,59.6v-0.679h-0.562v2.886h0.562
		v-1.231c0-0.342,0.08-0.617,0.239-0.82c0.16-0.206,0.4-0.312,0.715-0.312h0.004l-0.005-0.565
		C85.306,58.887,85.138,58.945,84.98,59.055z M90.734,58.877c-0.425,0-0.782,0.188-1.067,0.562l-0.029,0.04l-0.021-0.046
		c-0.162-0.376-0.463-0.558-0.919-0.558c-0.2,0-0.391,0.051-0.563,0.149c-0.172,0.101-0.305,0.238-0.391,0.414l-0.056,0.112V58.92
		h-0.562v2.887h0.562v-1.563c0-0.281,0.084-0.498,0.248-0.646c0.164-0.146,0.358-0.221,0.579-0.221c0.223,0,0.389,0.069,0.492,0.208
		c0.104,0.136,0.156,0.349,0.156,0.635v1.587h0.562v-1.608c0.007-0.267,0.094-0.472,0.257-0.611
		c0.161-0.139,0.353-0.209,0.569-0.209c0.468,0,0.703,0.283,0.703,0.844v1.586h0.562v-1.774c0-0.373-0.102-0.662-0.299-0.859
		C91.32,58.977,91.057,58.877,90.734,58.877z M94.471,59.133c0.211,0.17,0.318,0.438,0.318,0.805v1.869h-0.506v-0.442l-0.053,0.062
		c-0.236,0.283-0.559,0.427-0.957,0.427c-0.298,0-0.548-0.085-0.742-0.253c-0.193-0.167-0.291-0.394-0.291-0.673
		c0-0.277,0.104-0.488,0.309-0.626c0.207-0.14,0.494-0.211,0.853-0.211h0.831v-0.14c0-0.409-0.229-0.615-0.682-0.615
		c-0.27,0-0.555,0.096-0.846,0.287l-0.244-0.343c0.346-0.267,0.742-0.401,1.178-0.401C93.978,58.877,94.258,58.963,94.471,59.133z
		 M94.228,60.462H93.5c-0.463,0-0.697,0.15-0.697,0.45c0,0.152,0.06,0.271,0.178,0.354c0.115,0.078,0.275,0.118,0.479,0.118
		s0.383-0.058,0.535-0.172c0.155-0.116,0.233-0.274,0.233-0.472V60.462z M96.448,59.055c-0.166,0.114-0.301,0.264-0.396,0.443
		L95.997,59.6v-0.679h-0.562v2.886h0.562v-1.231c0-0.342,0.08-0.617,0.237-0.82c0.16-0.206,0.399-0.312,0.716-0.312h0.004
		l-0.004-0.565C96.773,58.887,96.605,58.945,96.448,59.055z M99.87,58.921h-0.717l-1.236,1.294v-2.456h-0.562v4.048h0.562V60.99
		l0.481-0.488l0.021,0.03l0.865,1.275h0.682l-1.182-1.75L99.87,58.921z"/>
	<path display="inline" fill="#FFFFFF" d="M20.887,58.59c0.139-0.121,0.276-0.246,0.41-0.379c1.538-1.528,2.307-3.398,2.307-5.609
		c0-2.21-0.768-4.081-2.307-5.608c-1.539-1.529-3.461-2.292-5.769-2.292c-2.307,0-4.229,0.764-5.768,2.292
		c-1.539,1.527-2.308,3.397-2.308,5.608s0.769,4.081,2.308,5.609c1.538,1.529,3.46,2.293,5.768,2.293
		c1.108,0,2.126-0.178,3.057-0.531c2.214,1.793,5.738,1.863,5.738,1.863C22.62,61.228,21.398,59.453,20.887,58.59z M20.158,56.528
		h-9.261c-0.361,0-0.653-0.292-0.653-0.652c0-0.359,0.292-0.652,0.653-0.652h9.261c0.36,0,0.652,0.293,0.652,0.652
		C20.811,56.236,20.519,56.528,20.158,56.528z M20.158,53.254h-9.261c-0.361,0-0.653-0.292-0.653-0.652
		c0-0.359,0.292-0.651,0.653-0.651h9.261c0.36,0,0.652,0.292,0.652,0.651C20.81,52.962,20.519,53.254,20.158,53.254z M20.158,49.981
		h-9.261c-0.361,0-0.653-0.292-0.653-0.652c0-0.361,0.292-0.653,0.653-0.653h9.261c0.36,0,0.652,0.292,0.652,0.653
		C20.811,49.689,20.519,49.981,20.158,49.981z M13.542,40.139c0-1.723,0.889-3.119,1.985-3.119c1.096,0,1.985,1.396,1.985,3.119
		s-0.889,3.12-1.985,3.12C14.431,43.259,13.542,41.862,13.542,40.139z M7.127,42.167c-0.96-1.663-0.88-3.505,0.178-4.116
		c1.058-0.61,2.693,0.242,3.653,1.904c0.959,1.663,0.88,3.505-0.178,4.115C9.723,44.682,8.087,43.83,7.127,42.167z M7.004,47.916
		c-0.611,1.058-2.454,1.138-4.116,0.178c-1.663-0.96-2.515-2.596-1.904-3.653c0.611-1.058,2.454-1.138,4.116-0.178
		C6.763,45.222,7.615,46.858,7.004,47.916z M6.269,52.686c0,1.098-1.396,1.985-3.12,1.985c-1.723,0-3.12-0.89-3.12-1.985
		c0-1.095,1.397-1.983,3.12-1.983C4.872,50.701,6.269,51.59,6.269,52.686z M27.578,52.977h1.956c1.619,0,2.82-0.311,3.603-0.93
		c0.783-0.621,1.174-1.599,1.174-2.935c0-1.335-0.383-2.322-1.151-2.964c-0.768-0.641-1.987-0.962-3.658-0.962h-3.785v11.022h1.861
		V52.977z M27.578,46.874h1.892c1.009,0,1.75,0.158,2.224,0.473c0.473,0.315,0.71,0.854,0.71,1.617s-0.187,1.34-0.56,1.734
		c-0.373,0.395-1.075,0.592-2.105,0.592h-2.161V46.874z M40.453,55.949c0.521-0.259,0.949-0.63,1.285-1.112v1.372h1.767v-8.39
		h-1.767v1.451c-0.715-1.051-1.624-1.577-2.728-1.577c-1.104,0-2.061,0.39-2.87,1.167c-0.81,0.778-1.214,1.819-1.214,3.122
		c0,1.306,0.394,2.355,1.183,3.154c0.788,0.799,1.713,1.198,2.775,1.198C39.409,56.335,39.932,56.207,40.453,55.949z M36.692,52.054
		c0-0.804,0.252-1.474,0.757-2.01c0.505-0.536,1.109-0.804,1.814-0.804c0.704,0,1.298,0.268,1.782,0.804
		c0.483,0.537,0.726,1.204,0.726,2.003s-0.242,1.453-0.726,1.963s-1.072,0.765-1.766,0.765c-0.694,0-1.298-0.252-1.814-0.757
		C36.949,53.513,36.692,52.858,36.692,52.054z M58.09,47.82l-2.9,8.39h-2.02l-1.986-5.74l-1.987,5.74h-2.018l-2.902-8.39h1.83
		l2.082,6.339l2.082-6.339H52.1l2.081,6.339l2.082-6.339H58.09z M67.709,49.113c0-1.334-0.385-2.322-1.15-2.964
		c-0.77-0.641-1.988-0.962-3.659-0.962h-3.784v11.022h1.861v-3.232h1.954c1.618,0,2.819-0.311,3.604-0.93
		C67.316,51.426,67.709,50.448,67.709,49.113z M65.241,50.697c-0.373,0.396-1.074,0.593-2.104,0.593h-2.16v-4.415h1.892
		c1.01,0,1.75,0.158,2.225,0.473c0.474,0.315,0.709,0.854,0.709,1.617S65.613,50.304,65.241,50.697z M73.258,49.476
		c-0.871,0-1.528,0.284-1.971,0.853c-0.441,0.567-0.662,1.329-0.662,2.286v3.596h-1.767V47.82h1.767v1.688
		c0.283-0.525,0.67-0.957,1.16-1.293c0.487-0.336,1.006-0.51,1.553-0.521l0.016,1.782C73.322,49.476,73.292,49.476,73.258,49.476z
		 M74.441,46.148c-0.221-0.221-0.33-0.482-0.33-0.789c0-0.305,0.109-0.566,0.33-0.789c0.222-0.221,0.483-0.331,0.789-0.331
		s0.567,0.11,0.788,0.331c0.223,0.222,0.331,0.484,0.331,0.789c0,0.306-0.108,0.568-0.331,0.789
		c-0.221,0.222-0.482,0.331-0.788,0.331S74.663,46.369,74.441,46.148z M74.333,47.82h1.766v8.39h-1.766V47.82z M84.715,48.561
		c0.584,0.579,0.875,1.414,0.875,2.507v5.142h-1.766v-4.604c0-1.545-0.643-2.317-1.925-2.317c-0.61,0-1.142,0.202-1.594,0.606
		c-0.451,0.405-0.679,0.996-0.679,1.774v4.541h-1.766v-8.39h1.766v1.529c0.285-0.515,0.677-0.92,1.177-1.214
		c0.499-0.294,1.036-0.441,1.614-0.441C83.368,47.694,84.131,47.983,84.715,48.561z M91.613,54.254l0.728,1.245
		c-0.621,0.558-1.307,0.836-2.059,0.836c-0.753,0-1.395-0.261-1.925-0.78c-0.53-0.521-0.797-1.223-0.797-2.104v-4.21h-1.058V47.82
		h1.058v-2.633h1.769v2.633h2.207v1.42h-2.207v4.257c0,0.399,0.104,0.718,0.313,0.954c0.21,0.235,0.505,0.354,0.883,0.354
		C90.904,54.806,91.267,54.621,91.613,54.254z M99.971,53.701c0,0.799-0.289,1.438-0.867,1.916
		c-0.578,0.478-1.318,0.718-2.223,0.718c-0.61,0-1.244-0.11-1.9-0.331c-0.658-0.221-1.238-0.531-1.742-0.93l0.852-1.373
		c0.978,0.735,1.925,1.104,2.839,1.104c0.397,0,0.715-0.093,0.944-0.276c0.23-0.183,0.349-0.418,0.349-0.7
		c0-0.42-0.558-0.8-1.673-1.137c-0.084-0.03-0.146-0.052-0.188-0.062c-1.745-0.473-2.616-1.262-2.616-2.365
		c0-0.778,0.301-1.4,0.905-1.869c0.604-0.468,1.392-0.702,2.356-0.702c0.967,0,1.882,0.284,2.744,0.853l-0.662,1.309
		c-0.685-0.452-1.426-0.678-2.225-0.678c-0.42,0-0.762,0.077-1.023,0.229c-0.264,0.153-0.396,0.382-0.396,0.687
		c0,0.272,0.138,0.473,0.41,0.6c0.188,0.095,0.454,0.185,0.796,0.269s0.645,0.168,0.906,0.253c0.264,0.084,0.52,0.179,0.766,0.284
		c0.247,0.104,0.514,0.252,0.797,0.44C99.688,52.314,99.971,52.902,99.971,53.701z M13.508,40.134c0-1.72,0.888-3.115,1.982-3.115
		c1.094,0,1.982,1.396,1.982,3.115s-0.888,3.115-1.982,3.115C14.396,43.249,13.508,41.855,13.508,40.134z"/>
</g>
</svg>
