<?xml version="1.0" encoding="UTF-8"?>
<!DOCTYPE svg PUBLIC "-//W3C//DTD SVG 1.1//EN" "http://www.w3.org/Graphics/SVG/1.1/DTD/svg11.dtd">
<svg xmlns="http://www.w3.org/2000/svg" version="1.1" width="5001px" height="1099px" style="shape-rendering:geometricPrecision; text-rendering:geometricPrecision; image-rendering:optimizeQuality; fill-rule:evenodd; clip-rule:evenodd" xmlns:xlink="http://www.w3.org/1999/xlink">
<g><path style="opacity:0.981" fill="#fefffe" d="M -0.5,-0.5 C 68.5,-0.5 137.5,-0.5 206.5,-0.5C 206.789,3.10636 206.456,6.60636 205.5,10C 190.078,13.7948 176.245,20.6281 164,30.5C 158.467,38.4701 157.134,47.1368 160,56.5C 205.891,160.835 252.557,264.835 300,368.5C 341.392,275.382 383.059,182.382 425,89.5C 430.354,79.0896 432.354,68.0896 431,56.5C 428.91,49.8201 425.41,43.9868 420.5,39C 400.855,25.1057 379.188,15.439 355.5,10C 354.544,6.60636 354.211,3.10636 354.5,-0.5C 414.167,-0.5 473.833,-0.5 533.5,-0.5C 533.665,2.8499 533.498,6.18323 533,9.5C 513.55,18.2833 498.55,31.95 488,50.5C 427.082,180.502 366.582,310.668 306.5,441C 281.594,441.827 256.761,441.661 232,440.5C 172.214,310.26 111.88,180.26 51,50.5C 39.3197,30.0606 22.153,16.394 -0.5,9.5C -0.5,6.16667 -0.5,2.83333 -0.5,-0.5 Z"/></g>
<g><path style="opacity:0.986" fill="#fefffe" d="M 631.5,-0.5 C 682.5,-0.5 733.5,-0.5 784.5,-0.5C 845.177,131.349 906.344,263.016 968,394.5C 974.005,405.505 981.839,415.005 991.5,423C 996.419,426.042 1001.25,429.209 1006,432.5C 1006.5,435.482 1006.66,438.482 1006.5,441.5C 941.5,441.5 876.5,441.5 811.5,441.5C 811.216,438.223 811.549,435.057 812.5,432C 825.268,428.28 837.268,422.947 848.5,416C 855.051,410.897 858.718,404.23 859.5,396C 858.512,387.884 856.345,380.05 853,372.5C 842.833,350.167 832.667,327.833 822.5,305.5C 752.833,304.167 683.167,304.167 613.5,305.5C 605.667,323.167 597.833,340.833 590,358.5C 581.505,378.052 585.672,394.218 602.5,407C 621.043,418.598 641.043,426.931 662.5,432C 663.451,435.057 663.784,438.223 663.5,441.5C 603.5,441.5 543.5,441.5 483.5,441.5C 483.18,438.102 483.513,434.768 484.5,431.5C 506.193,419.973 522.693,403.307 534,381.5C 582.054,278.67 629.72,175.67 677,72.5C 686.701,50.9437 681.534,34.1104 661.5,22C 652.176,17.1715 642.51,13.1715 632.5,10C 631.544,6.60636 631.211,3.10636 631.5,-0.5 Z M 717.5,73.5 C 746.671,136.981 775.671,200.647 804.5,264.5C 746.836,265.667 689.17,265.833 631.5,265C 660.307,201.22 688.974,137.386 717.5,73.5 Z"/></g>
<g><path style="opacity:0.984" fill="#fefffe" d="M 1031.5,-0.5 C 1082.17,-0.5 1132.83,-0.5 1183.5,-0.5C 1279.16,105.998 1374.66,212.664 1470,319.5C 1470.67,247.167 1470.67,174.833 1470,102.5C 1470.16,85.1168 1466.16,68.7835 1458,53.5C 1447.78,40.2803 1434.94,30.447 1419.5,24C 1407.66,18.9411 1395.66,14.2745 1383.5,10C 1382.54,6.60636 1382.21,3.10636 1382.5,-0.5C 1444.17,-0.5 1505.83,-0.5 1567.5,-0.5C 1567.67,2.8499 1567.5,6.18323 1567,9.5C 1556.62,15.2145 1546.79,21.7145 1537.5,29C 1522.47,43.914 1514.63,62.0806 1514,83.5C 1512.53,202.82 1512.03,322.153 1512.5,441.5C 1491.83,441.667 1471.16,441.5 1450.5,441C 1345.22,323.594 1240.05,206.094 1135,88.5C 1134.33,172.5 1134.33,256.5 1135,340.5C 1134.95,357.541 1138.95,373.541 1147,388.5C 1156.82,400.996 1168.99,410.496 1183.5,417C 1195.94,422.554 1208.61,427.554 1221.5,432C 1222.45,435.057 1222.78,438.223 1222.5,441.5C 1160.83,441.5 1099.17,441.5 1037.5,441.5C 1037.34,438.482 1037.5,435.482 1038,432.5C 1046.42,427.708 1054.59,422.542 1062.5,417C 1079.08,404.34 1088.25,387.507 1090,366.5C 1090.98,358.862 1091.64,351.195 1092,343.5C 1092.67,256.833 1092.67,170.167 1092,83.5C 1092.18,66.5699 1088.51,50.5699 1081,35.5C 1074.26,27.033 1065.76,20.8664 1055.5,17C 1047.95,14.2623 1040.29,11.929 1032.5,10C 1031.54,6.60636 1031.21,3.10636 1031.5,-0.5 Z"/></g>
<g><path style="opacity:0.985" fill="#fefffe" d="M 1630.5,-0.5 C 1715.5,-0.5 1800.5,-0.5 1885.5,-0.5C 1954.59,1.03033 2016.93,22.197 2072.5,63C 2111.73,93.2838 2137.56,132.45 2150,180.5C 2162.79,255.461 2140.96,318.294 2084.5,369C 2032.78,412.003 1973.11,436.003 1905.5,441C 1813.83,441.5 1722.17,441.667 1630.5,441.5C 1630.22,438.223 1630.55,435.057 1631.5,432C 1647.46,428.858 1661.79,422.358 1674.5,412.5C 1680.74,406.018 1684.91,398.351 1687,389.5C 1689.4,378.632 1690.73,367.632 1691,356.5C 1691.67,266.167 1691.67,175.833 1691,85.5C 1691.24,68.715 1687.91,52.715 1681,37.5C 1674.55,27.7318 1665.72,20.8985 1654.5,17C 1646.95,14.2623 1639.29,11.929 1631.5,10C 1630.54,6.60636 1630.21,3.10636 1630.5,-0.5 Z M 1785.5,39.5 C 1820.5,39.3333 1855.5,39.5 1890.5,40C 1976.26,44.4327 2027.76,88.5993 2045,172.5C 2051.72,212.517 2050.05,252.184 2040,291.5C 2021.28,352.455 1980.45,388.289 1917.5,399C 1907.89,400.576 1898.23,401.576 1888.5,402C 1854.17,402.5 1819.83,402.667 1785.5,402.5C 1785.5,281.5 1785.5,160.5 1785.5,39.5 Z"/></g>
<g><path style="opacity:0.984" fill="#fefffe" d="M 2197.5,-0.5 C 2342.17,-0.5 2486.83,-0.5 2631.5,-0.5C 2636.47,50.8066 2641.13,102.14 2645.5,153.5C 2642.22,153.784 2639.06,153.451 2636,152.5C 2622.15,126.117 2605.82,101.45 2587,78.5C 2575.35,64.5009 2561.18,54.0009 2544.5,47C 2532.56,42.6273 2520.23,40.2939 2507.5,40C 2455.5,39.5 2403.5,39.3333 2351.5,39.5C 2351.5,91.5 2351.5,143.5 2351.5,195.5C 2384.17,195.667 2416.84,195.5 2449.5,195C 2459.24,194.419 2467.91,191.086 2475.5,185C 2487.48,173.187 2497.65,160.021 2506,145.5C 2512.33,134.5 2518.67,123.5 2525,112.5C 2528.06,111.549 2531.22,111.216 2534.5,111.5C 2534.5,180.5 2534.5,249.5 2534.5,318.5C 2531.1,318.82 2527.77,318.487 2524.5,317.5C 2513.84,296.828 2501.67,277.161 2488,258.5C 2481.64,249.467 2473.47,242.634 2463.5,238C 2457.99,236.149 2452.33,235.149 2446.5,235C 2414.84,234.5 2383.17,234.333 2351.5,234.5C 2351.5,290.5 2351.5,346.5 2351.5,402.5C 2401.83,402.667 2452.17,402.5 2502.5,402C 2538.17,401.083 2567.33,386.917 2590,359.5C 2610.19,333.957 2628.03,306.79 2643.5,278C 2646.48,277.502 2649.48,277.335 2652.5,277.5C 2647.76,332.19 2642.76,386.857 2637.5,441.5C 2490.5,441.5 2343.5,441.5 2196.5,441.5C 2196.18,438.428 2196.52,435.428 2197.5,432.5C 2212.28,429.079 2225.95,423.246 2238.5,415C 2245,409.5 2249.5,402.667 2252,394.5C 2254.88,384.704 2256.54,374.704 2257,364.5C 2257.67,268.833 2257.67,173.167 2257,77.5C 2256.84,61.1928 2252.51,46.1928 2244,32.5C 2238.67,26.8402 2232.51,22.3402 2225.5,19C 2216.38,15.2193 2207.04,12.0526 2197.5,9.5C 2196.25,6.12595 2196.25,2.79261 2197.5,-0.5 Z"/></g>
<g><path style="opacity:0.988" fill="#fefffe" d="M 2730.5,-0.5 C 2816.5,-0.5 2902.5,-0.5 2988.5,-0.5C 3022.34,-0.103736 3056,3.39626 3089.5,10C 3115.84,15.3452 3140.18,25.3452 3162.5,40C 3199.32,69.4457 3208.82,105.946 3191,149.5C 3183.92,161.245 3174.76,171.078 3163.5,179C 3146.57,190.298 3128.23,198.631 3108.5,204C 3093.32,207.919 3077.98,211.086 3062.5,213.5C 3102.25,220.44 3132.42,241.106 3153,275.5C 3157.92,284.343 3162.59,293.343 3167,302.5C 3181.61,336.334 3196.61,370 3212,403.5C 3220.77,417.587 3233.1,427.254 3249,432.5C 3249.5,435.482 3249.66,438.482 3249.5,441.5C 3220.5,441.667 3191.5,441.5 3162.5,441C 3141.34,440.171 3124.5,431.337 3112,414.5C 3108.08,407.658 3104.41,400.658 3101,393.5C 3089.33,361.833 3077.67,330.167 3066,298.5C 3060.83,283.832 3053.83,270.166 3045,257.5C 3030.34,240.937 3011.84,233.103 2989.5,234C 2954.5,233.5 2919.5,233.333 2884.5,233.5C 2884.33,272.835 2884.5,312.168 2885,351.5C 2884.59,368.824 2887.59,385.49 2894,401.5C 2900.74,412.459 2910.24,419.959 2922.5,424C 2931.72,427.072 2941.05,429.739 2950.5,432C 2951.45,435.057 2951.78,438.223 2951.5,441.5C 2877.83,441.5 2804.17,441.5 2730.5,441.5C 2730.22,438.223 2730.55,435.057 2731.5,432C 2745.44,428.801 2758.44,423.468 2770.5,416C 2778.95,408.598 2784.45,399.432 2787,388.5C 2789.65,375.303 2790.98,361.97 2791,348.5C 2791.67,263.5 2791.67,178.5 2791,93.5C 2791.56,74.8556 2788.56,56.8556 2782,39.5C 2774.93,27.708 2764.76,19.8747 2751.5,16C 2744.93,13.6897 2738.26,11.6897 2731.5,10C 2730.54,6.60636 2730.21,3.10636 2730.5,-0.5 Z M 2884.5,39.5 C 2923.18,39.2161 2961.84,39.5495 3000.5,40.5C 3025.43,40.9153 3048.77,47.082 3070.5,59C 3089.85,73.1958 3098.85,92.3624 3097.5,116.5C 3098.08,151.423 3081.74,174.256 3048.5,185C 3034.14,189.337 3019.48,192.004 3004.5,193C 2964.51,194.324 2924.51,194.824 2884.5,194.5C 2884.5,142.833 2884.5,91.1667 2884.5,39.5 Z"/></g>
<g><path style="opacity:0.984" fill="#fefffe" d="M 3277.5,-0.5 C 3359.83,-0.5 3442.17,-0.5 3524.5,-0.5C 3557.99,0.0168968 3591.33,3.5169 3624.5,10C 3649.86,15.1836 3673.52,24.5169 3695.5,38C 3731.4,63.36 3742.23,96.86 3728,138.5C 3716.21,161.289 3698.38,177.455 3674.5,187C 3648.82,197.419 3622.16,203.752 3594.5,206C 3629.92,208.605 3663.59,217.605 3695.5,233C 3720.06,245.222 3738.22,263.722 3750,288.5C 3762.7,330.047 3752.87,365.214 3720.5,394C 3701.4,408.884 3680.06,419.551 3656.5,426C 3625.41,434.571 3593.74,439.571 3561.5,441C 3467.83,441.5 3374.17,441.667 3280.5,441.5C 3280.22,438.223 3280.55,435.057 3281.5,432C 3293.37,429.044 3304.7,424.711 3315.5,419C 3327.63,409.914 3334.46,397.748 3336,382.5C 3336.94,376.197 3337.61,369.863 3338,363.5C 3338.67,269.167 3338.67,174.833 3338,80.5C 3338.06,64.5129 3334.4,49.5129 3327,35.5C 3322.74,29.2353 3317.24,24.402 3310.5,21C 3300.09,16.4739 3289.42,12.6406 3278.5,9.5C 3277.51,6.23171 3277.18,2.89838 3277.5,-0.5 Z M 3432.5,39.5 C 3464.5,39.3334 3496.5,39.5 3528.5,40C 3548.33,40.5466 3567.66,43.8799 3586.5,50C 3616.96,61.4567 3631.96,83.4567 3631.5,116C 3631.78,149.383 3616.11,171.383 3584.5,182C 3568.23,187.157 3551.56,190.157 3534.5,191C 3500.5,191.5 3466.5,191.667 3432.5,191.5C 3432.5,140.833 3432.5,90.1667 3432.5,39.5 Z M 3432.5,231.5 C 3469.83,231.333 3507.17,231.5 3544.5,232C 3564.4,232.714 3583.74,236.381 3602.5,243C 3635.3,256.567 3651.3,281.233 3650.5,317C 3651.24,353.211 3634.91,377.878 3601.5,391C 3585.62,396.51 3569.28,399.843 3552.5,401C 3512.52,402.382 3472.52,402.882 3432.5,402.5C 3432.5,345.5 3432.5,288.5 3432.5,231.5 Z"/></g>
<g><path style="opacity:0.985" fill="#fefffe" d="M 3807.5,-0.5 C 3879.17,-0.5 3950.83,-0.5 4022.5,-0.5C 4022.79,3.10636 4022.46,6.60636 4021.5,10C 4007.95,12.8482 3995.28,17.8482 3983.5,25C 3975.31,30.8687 3969.81,38.702 3967,48.5C 3964.11,59.9854 3962.44,71.652 3962,83.5C 3961.33,174.833 3961.33,266.167 3962,357.5C 3961.8,373.959 3965.13,389.626 3972,404.5C 3978.05,413.54 3986.22,420.04 3996.5,424C 4004.64,427.268 4012.97,429.935 4021.5,432C 4022.45,435.057 4022.78,438.223 4022.5,441.5C 3950.83,441.5 3879.17,441.5 3807.5,441.5C 3807.5,438.167 3807.5,434.833 3807.5,431.5C 3820.61,429.076 3832.94,424.576 3844.5,418C 3853.78,411.382 3859.94,402.549 3863,391.5C 3864.98,383.274 3866.32,374.941 3867,366.5C 3867.67,269.833 3867.67,173.167 3867,76.5C 3866.71,62.3761 3863.38,49.0427 3857,36.5C 3850.97,28.0654 3843.14,21.8987 3833.5,18C 3825.32,14.8713 3816.99,12.2046 3808.5,10C 3807.54,6.60636 3807.21,3.10636 3807.5,-0.5 Z"/></g>
<g><path style="opacity:0.989" fill="#fefffe" d="M 4085.5,-0.5 C 4159.17,-0.5 4232.83,-0.5 4306.5,-0.5C 4306.82,2.89838 4306.49,6.23171 4305.5,9.5C 4289.48,12.8917 4274.48,18.725 4260.5,27C 4249.44,36.6141 4243.28,48.7808 4242,63.5C 4241.04,71.8091 4240.38,80.1425 4240,88.5C 4239.5,193.166 4239.33,297.833 4239.5,402.5C 4281.5,402.667 4323.5,402.5 4365.5,402C 4401.63,401.513 4431.47,387.68 4455,360.5C 4478.49,331.539 4498.49,300.206 4515,266.5C 4518.06,265.549 4521.22,265.216 4524.5,265.5C 4519.3,324.178 4513.97,382.844 4508.5,441.5C 4367.5,441.5 4226.5,441.5 4085.5,441.5C 4085.22,438.223 4085.55,435.057 4086.5,432C 4100.44,428.801 4113.44,423.468 4125.5,416C 4136.61,406.032 4142.78,393.532 4144,378.5C 4145,369.526 4145.67,360.526 4146,351.5C 4146.67,264.5 4146.67,177.5 4146,90.5C 4145.94,76.6299 4144.27,62.9632 4141,49.5C 4135.12,32.6254 4123.62,21.4587 4106.5,16C 4099.93,13.6897 4093.26,11.6897 4086.5,10C 4085.54,6.60636 4085.21,3.10636 4085.5,-0.5 Z"/></g>
<g><path style="opacity:0.985" fill="#fefffe" d="M 4540.5,-0.5 C 4688.83,-0.5 4837.17,-0.5 4985.5,-0.5C 4990.12,51.0151 4995.12,102.348 5000.5,153.5C 5000.5,155.5 5000.5,157.5 5000.5,159.5C 4997.48,159.665 4994.48,159.498 4991.5,159C 4977.7,134.564 4962.54,111.064 4946,88.5C 4932.86,71.3532 4916.69,57.8532 4897.5,48C 4888.78,44.5708 4879.78,42.2375 4870.5,41C 4850.19,39.6472 4829.86,39.1472 4809.5,39.5C 4809.33,144.834 4809.5,250.167 4810,355.5C 4809.69,372.301 4813.02,388.301 4820,403.5C 4826.71,413.609 4835.88,420.442 4847.5,424C 4856.65,427.289 4865.99,429.955 4875.5,432C 4876.45,435.057 4876.78,438.223 4876.5,441.5C 4800.83,441.5 4725.17,441.5 4649.5,441.5C 4649.22,438.223 4649.55,435.057 4650.5,432C 4666.61,429.077 4681.61,423.41 4695.5,415C 4706.85,405.132 4713.02,392.632 4714,377.5C 4715.04,368.864 4715.7,360.197 4716,351.5C 4716.5,247.501 4716.67,143.501 4716.5,39.5C 4696.14,39.1472 4675.81,39.6472 4655.5,41C 4632.97,43.9318 4613.64,53.2652 4597.5,69C 4572.93,95.621 4552.43,125.121 4536,157.5C 4535.5,158 4535,158.5 4534.5,159C 4531.52,159.498 4528.52,159.665 4525.5,159.5C 4530.38,106.154 4535.38,52.8203 4540.5,-0.5 Z"/></g>
<g><path style="opacity:0.983" fill="#fefffe" d="M 3368.5,1098.5 C 3355.83,1098.5 3343.17,1098.5 3330.5,1098.5C 3277.67,1095.97 3226.84,1084.3 3178,1063.5C 3166.87,1073.62 3156.04,1084.12 3145.5,1095C 3142.17,1095.67 3138.83,1095.67 3135.5,1095C 3129.21,1035.24 3123.21,975.405 3117.5,915.5C 3120.85,915.335 3124.18,915.502 3127.5,916C 3160.1,963.939 3201.1,1002.94 3250.5,1033C 3314.42,1068.94 3381.09,1074.94 3450.5,1051C 3466.51,1044.92 3479.68,1035.08 3490,1021.5C 3503.21,997.005 3499.71,975.171 3479.5,956C 3467.5,947.003 3454.17,940.669 3439.5,937C 3380.55,925.077 3321.55,913.411 3262.5,902C 3229.78,894.993 3199.78,881.993 3172.5,863C 3140.28,836.687 3127.44,802.854 3134,761.5C 3142.66,723.678 3163.82,695.178 3197.5,676C 3230.62,658.296 3265.95,648.296 3303.5,646C 3368.7,641.44 3431.54,651.607 3492,676.5C 3502.13,667.376 3511.96,657.876 3521.5,648C 3524.82,647.502 3528.15,647.335 3531.5,647.5C 3536.63,701.486 3541.63,755.486 3546.5,809.5C 3543.15,809.665 3539.82,809.498 3536.5,809C 3506.91,768.073 3470.91,734.073 3428.5,707C 3370.32,674.36 3309.65,669.026 3246.5,691C 3227.05,697.783 3212.55,710.283 3203,728.5C 3195.43,757.119 3204.6,778.619 3230.5,793C 3243.26,799.255 3256.6,803.922 3270.5,807C 3325.52,817.226 3380.52,827.559 3435.5,838C 3471.09,844.85 3503.42,858.85 3532.5,880C 3567.79,912.659 3577.62,951.826 3562,997.5C 3548.81,1027.7 3527.64,1050.53 3498.5,1066C 3474.55,1078.65 3449.22,1087.32 3422.5,1092C 3404.47,1095.17 3386.47,1097.33 3368.5,1098.5 Z"/></g>
<g><path style="opacity:0.982" fill="#fefffe" d="M 323.5,1098.5 C 312.167,1098.5 300.833,1098.5 289.5,1098.5C 255.439,1097.39 222.439,1090.55 190.5,1078C 138.242,1054.36 109.409,1013.86 104,956.5C 102.71,880.181 102.043,803.848 102,727.5C 101.71,713.376 98.3766,700.043 92,687.5C 84.333,676.84 74.1663,669.673 61.5,666C 54.9023,663.851 48.2357,662.018 41.5,660.5C 41.5,657.167 41.5,653.833 41.5,650.5C 115.5,650.5 189.5,650.5 263.5,650.5C 263.5,653.833 263.5,657.167 263.5,660.5C 246.577,663.084 230.91,668.917 216.5,678C 206.31,687.212 200.477,698.712 199,712.5C 198.113,719.144 197.446,725.811 197,732.5C 196.333,804.5 196.333,876.5 197,948.5C 200.192,1008.36 231.359,1042.86 290.5,1052C 322.035,1057.16 353.369,1056.16 384.5,1049C 433.229,1034.6 460.729,1002.1 467,951.5C 467.95,944.193 468.617,936.86 469,929.5C 469.667,872.5 469.667,815.5 469,758.5C 469.495,739.454 465.495,721.454 457,704.5C 445.929,690.025 431.762,679.525 414.5,673C 403.945,668.556 393.278,664.389 382.5,660.5C 381.513,657.232 381.18,653.898 381.5,650.5C 442.167,650.5 502.833,650.5 563.5,650.5C 563.82,653.898 563.487,657.232 562.5,660.5C 549.139,667.437 537.306,676.437 527,687.5C 516.884,703.62 511.884,721.286 512,740.5C 511.951,808.515 511.284,876.515 510,944.5C 500.323,1024.03 456.49,1072.87 378.5,1091C 360.185,1094.75 341.852,1097.25 323.5,1098.5 Z"/></g>
<g><path style="opacity:0.984" fill="#fefffe" d="M 626.5,650.5 C 676.168,650.333 725.834,650.5 775.5,651C 871.37,757.202 966.87,863.702 1062,970.5C 1062.67,898.5 1062.67,826.5 1062,754.5C 1062.67,733.47 1057,714.47 1045,697.5C 1033.45,686.633 1020.28,678.133 1005.5,672C 995.611,667.889 985.611,664.056 975.5,660.5C 974.513,657.232 974.18,653.898 974.5,650.5C 1036.17,650.5 1097.83,650.5 1159.5,650.5C 1159.82,653.898 1159.49,657.232 1158.5,660.5C 1141.81,668.362 1127.97,679.695 1117,694.5C 1110.69,706.729 1107.03,719.729 1106,733.5C 1104.53,853.153 1104.03,972.819 1104.5,1092.5C 1083.83,1092.67 1063.16,1092.5 1042.5,1092C 937.704,974.202 832.537,856.702 727,739.5C 726.333,823.5 726.333,907.5 727,991.5C 726.311,1028.32 742.811,1053.82 776.5,1068C 788.61,1073.39 800.943,1078.22 813.5,1082.5C 814.487,1085.77 814.82,1089.1 814.5,1092.5C 750.833,1092.5 687.167,1092.5 623.5,1092.5C 623.18,1089.1 623.513,1085.77 624.5,1082.5C 640.684,1075.33 654.85,1065.33 667,1052.5C 674.385,1042.36 679.051,1031.03 681,1018.5C 682.706,1008.91 683.706,999.241 684,989.5C 684.667,904.5 684.667,819.5 684,734.5C 683.951,720.104 681.618,706.104 677,692.5C 671.381,680.881 662.547,672.715 650.5,668C 642.706,664.79 634.706,662.29 626.5,660.5C 626.5,657.167 626.5,653.833 626.5,650.5 Z"/></g>
<g><path style="opacity:0.99" fill="#fefffe" d="M 1222.5,650.5 C 1293.17,650.5 1363.83,650.5 1434.5,650.5C 1434.5,653.833 1434.5,657.167 1434.5,660.5C 1420.34,663.382 1407.34,668.882 1395.5,677C 1387.03,685.44 1381.86,695.606 1380,707.5C 1378.17,719.091 1377.17,730.758 1377,742.5C 1376.33,828.167 1376.33,913.833 1377,999.5C 1376.71,1016.23 1379.04,1032.56 1384,1048.5C 1389.23,1060.73 1398.06,1069.23 1410.5,1074C 1419.29,1077.54 1428.29,1080.38 1437.5,1082.5C 1437.5,1085.83 1437.5,1089.17 1437.5,1092.5C 1365.83,1092.5 1294.17,1092.5 1222.5,1092.5C 1222.5,1089.17 1222.5,1085.83 1222.5,1082.5C 1237.27,1079.64 1250.93,1074.14 1263.5,1066C 1271.36,1058.79 1276.52,1049.96 1279,1039.5C 1281.57,1027.3 1282.9,1014.97 1283,1002.5C 1283.67,915.167 1283.67,827.833 1283,740.5C 1283.63,721.574 1279.96,703.574 1272,686.5C 1264.9,677.189 1255.73,670.689 1244.5,667C 1237.3,664.32 1229.96,662.154 1222.5,660.5C 1222.5,657.167 1222.5,653.833 1222.5,650.5 Z"/></g>
<g><path style="opacity:0.983" fill="#fefffe" d="M 1465.5,650.5 C 1531.5,650.5 1597.5,650.5 1663.5,650.5C 1663.82,653.898 1663.49,657.232 1662.5,660.5C 1647.54,664.418 1634.04,671.084 1622,680.5C 1616.26,689.069 1614.93,698.402 1618,708.5C 1663.78,812.07 1710.12,915.403 1757,1018.5C 1801.14,921.885 1844.47,824.885 1887,727.5C 1892.33,710.497 1887.83,696.664 1873.5,686C 1854.36,673.937 1833.7,665.437 1811.5,660.5C 1811.5,657.167 1811.5,653.833 1811.5,650.5C 1871.5,650.5 1931.5,650.5 1991.5,650.5C 1991.82,653.898 1991.49,657.232 1990.5,660.5C 1969.31,669.858 1953.48,684.858 1943,705.5C 1883.23,834.047 1823.73,962.713 1764.5,1091.5C 1739.6,1092.83 1714.77,1092.83 1690,1091.5C 1630,962.167 1570,832.833 1510,703.5C 1500.31,684.306 1485.81,669.973 1466.5,660.5C 1465.51,657.232 1465.18,653.898 1465.5,650.5 Z"/></g>
<g><path style="opacity:0.981" fill="#fefffe" d="M 2016.5,650.5 C 2161.5,650.5 2306.5,650.5 2451.5,650.5C 2456.05,701.511 2460.71,752.511 2465.5,803.5C 2462.1,803.82 2458.77,803.487 2455.5,802.5C 2441.9,776.957 2426.07,752.957 2408,730.5C 2392.28,711.436 2372.44,698.936 2348.5,693C 2343.53,692.114 2338.53,691.448 2333.5,691C 2279.5,690.5 2225.5,690.333 2171.5,690.5C 2171.5,742.167 2171.5,793.833 2171.5,845.5C 2205.83,845.667 2240.17,845.5 2274.5,845C 2281.91,843.626 2288.58,840.626 2294.5,836C 2304.85,826.327 2313.68,815.494 2321,803.5C 2329.09,790.331 2336.92,776.998 2344.5,763.5C 2347.77,762.513 2351.1,762.18 2354.5,762.5C 2354.5,831.5 2354.5,900.5 2354.5,969.5C 2351.48,969.665 2348.48,969.498 2345.5,969C 2334.13,948.408 2321.63,928.574 2308,909.5C 2301.7,900.86 2293.86,894.027 2284.5,889C 2280.65,887.384 2276.65,886.384 2272.5,886C 2238.83,885.5 2205.17,885.333 2171.5,885.5C 2171.5,941.167 2171.5,996.833 2171.5,1052.5C 2224.5,1052.67 2277.5,1052.5 2330.5,1052C 2353.44,1050.36 2373.77,1042.36 2391.5,1028C 2408.91,1012.26 2423.75,994.426 2436,974.5C 2445.54,959.247 2454.71,943.747 2463.5,928C 2466.48,927.502 2469.48,927.335 2472.5,927.5C 2467.43,982.495 2462.43,1037.49 2457.5,1092.5C 2310.5,1092.5 2163.5,1092.5 2016.5,1092.5C 2016.5,1089.17 2016.5,1085.83 2016.5,1082.5C 2030.81,1079.84 2044.15,1074.68 2056.5,1067C 2065.17,1060.17 2070.67,1051.33 2073,1040.5C 2075.27,1030.63 2076.6,1020.63 2077,1010.5C 2077.67,918.167 2077.67,825.833 2077,733.5C 2076.9,718.987 2074.23,704.987 2069,691.5C 2062.93,680.097 2053.76,672.264 2041.5,668C 2033.3,664.987 2024.96,662.487 2016.5,660.5C 2016.5,657.167 2016.5,653.833 2016.5,650.5 Z"/></g>
<g><path style="opacity:0.984" fill="#fefffe" d="M 2549.5,650.5 C 2641.5,650.333 2733.5,650.5 2825.5,651C 2863.29,651.636 2900.29,657.303 2936.5,668C 2961.66,675.821 2983.16,689.321 3001,708.5C 3019.49,733.415 3024.15,760.749 3015,790.5C 3006.79,809.042 2993.96,823.542 2976.5,834C 2946.29,850.625 2913.95,860.625 2879.5,864C 2926.23,871.433 2960.07,896.266 2981,938.5C 2996.61,971.38 3011.94,1004.38 3027,1037.5C 3038.25,1061.9 3057.08,1076.9 3083.5,1082.5C 3083.5,1085.83 3083.5,1089.17 3083.5,1092.5C 3049.14,1092.93 3014.81,1092.43 2980.5,1091C 2963.95,1088.98 2950.12,1081.81 2939,1069.5C 2934.16,1062.5 2929.83,1055.16 2926,1047.5C 2911.67,1011.17 2897.33,974.833 2883,938.5C 2877.85,926.179 2871.18,914.846 2863,904.5C 2850.2,891.858 2834.7,885.358 2816.5,885C 2779.17,884.5 2741.83,884.333 2704.5,884.5C 2704.33,925.835 2704.5,967.168 2705,1008.5C 2705.2,1022.22 2707.53,1035.55 2712,1048.5C 2718.02,1060.85 2727.52,1069.35 2740.5,1074C 2750.64,1077.62 2760.97,1080.45 2771.5,1082.5C 2771.5,1085.83 2771.5,1089.17 2771.5,1092.5C 2697.5,1092.5 2623.5,1092.5 2549.5,1092.5C 2549.22,1089.22 2549.55,1086.06 2550.5,1083C 2566.24,1079.63 2580.57,1073.29 2593.5,1064C 2599.37,1057.46 2603.54,1049.96 2606,1041.5C 2608.08,1032.95 2609.41,1024.28 2610,1015.5C 2610.67,919.833 2610.67,824.167 2610,728.5C 2609.84,714.028 2606.51,700.361 2600,687.5C 2592.33,676.84 2582.17,669.673 2569.5,666C 2562.9,663.851 2556.24,662.018 2549.5,660.5C 2549.5,657.167 2549.5,653.833 2549.5,650.5 Z M 2704.5,690.5 C 2742.83,690.333 2781.17,690.5 2819.5,691C 2836.9,691.772 2853.9,694.772 2870.5,700C 2906.44,714.323 2921.94,740.823 2917,779.5C 2913.22,806.62 2898.39,824.787 2872.5,834C 2854.67,840.024 2836.33,843.358 2817.5,844C 2779.83,844.5 2742.17,844.667 2704.5,844.5C 2704.5,793.167 2704.5,741.833 2704.5,690.5 Z"/></g>
<g><path style="opacity:0.99" fill="#fefffe" d="M 3623.5,650.5 C 3695.17,650.5 3766.83,650.5 3838.5,650.5C 3838.5,653.833 3838.5,657.167 3838.5,660.5C 3823.73,663.364 3810.07,668.864 3797.5,677C 3789.64,684.205 3784.48,693.038 3782,703.5C 3779.52,715.37 3778.18,727.37 3778,739.5C 3777.33,827.5 3777.33,915.5 3778,1003.5C 3778.18,1015.63 3779.52,1027.63 3782,1039.5C 3785.74,1056.24 3795.57,1067.74 3811.5,1074C 3820.29,1077.54 3829.29,1080.38 3838.5,1082.5C 3838.5,1085.83 3838.5,1089.17 3838.5,1092.5C 3766.83,1092.5 3695.17,1092.5 3623.5,1092.5C 3623.5,1089.17 3623.5,1085.83 3623.5,1082.5C 3636.97,1079.73 3649.64,1074.9 3661.5,1068C 3673.96,1057.91 3680.8,1044.74 3682,1028.5C 3683.05,1018.53 3683.71,1008.53 3684,998.5C 3684.67,913.833 3684.67,829.167 3684,744.5C 3684.01,729.635 3682.35,714.968 3679,700.5C 3673.86,683.36 3662.69,672.193 3645.5,667C 3638.3,664.32 3630.96,662.154 3623.5,660.5C 3623.5,657.167 3623.5,653.833 3623.5,650.5 Z"/></g>
<g><path style="opacity:0.983" fill="#fefffe" d="M 3913.5,650.5 C 4061.83,650.5 4210.17,650.5 4358.5,650.5C 4363.7,703.477 4368.7,756.477 4373.5,809.5C 4370.1,809.82 4366.77,809.487 4363.5,808.5C 4350.83,785.152 4336.67,762.819 4321,741.5C 4310.46,727.961 4298.29,716.128 4284.5,706C 4272.88,698.57 4260.21,693.903 4246.5,692C 4225.53,690.612 4204.53,690.112 4183.5,690.5C 4183.33,799.167 4183.5,907.834 4184,1016.5C 4184.17,1032.18 4188.5,1046.51 4197,1059.5C 4204.9,1067.05 4214.06,1072.55 4224.5,1076C 4232.72,1078.64 4241.06,1080.81 4249.5,1082.5C 4249.5,1085.83 4249.5,1089.17 4249.5,1092.5C 4173.83,1092.5 4098.17,1092.5 4022.5,1092.5C 4022.5,1089.17 4022.5,1085.83 4022.5,1082.5C 4037.6,1079.97 4051.93,1075.13 4065.5,1068C 4077,1060.19 4083.83,1049.35 4086,1035.5C 4087.66,1026.24 4088.66,1016.9 4089,1007.5C 4089.5,901.834 4089.67,796.167 4089.5,690.5C 4068.47,690.097 4047.47,690.597 4026.5,692C 4006.35,695.243 3988.68,703.576 3973.5,717C 3957.43,733.394 3943.26,751.227 3931,770.5C 3923.25,783.002 3915.75,795.668 3908.5,808.5C 3905.23,809.487 3901.9,809.82 3898.5,809.5C 3903.68,756.519 3908.68,703.519 3913.5,650.5 Z"/></g>
<g><path style="opacity:0.982" fill="#fefffe" d="M 4400.5,650.5 C 4469.17,650.5 4537.83,650.5 4606.5,650.5C 4606.5,653.833 4606.5,657.167 4606.5,660.5C 4592.58,663.04 4580.75,669.373 4571,679.5C 4566.54,687.456 4566.54,695.456 4571,703.5C 4573.93,709.427 4577.27,715.094 4581,720.5C 4621.05,773.551 4660.72,826.885 4700,880.5C 4735,833.833 4770,787.167 4805,740.5C 4824.54,714.897 4820.71,693.73 4793.5,677C 4780.73,670.113 4767.39,664.613 4753.5,660.5C 4752.51,657.232 4752.18,653.898 4752.5,650.5C 4813.5,650.5 4874.5,650.5 4935.5,650.5C 4935.66,653.518 4935.5,656.518 4935,659.5C 4908.81,672.689 4886.48,690.689 4868,713.5C 4817.39,783.78 4766.39,853.78 4715,923.5C 4714.33,950.167 4714.33,976.833 4715,1003.5C 4715.04,1017.79 4717.04,1031.79 4721,1045.5C 4724.6,1055.77 4731.1,1063.6 4740.5,1069C 4753.51,1075.5 4767.17,1080 4781.5,1082.5C 4781.5,1085.83 4781.5,1089.17 4781.5,1092.5C 4705.83,1092.5 4630.17,1092.5 4554.5,1092.5C 4554.5,1089.17 4554.5,1085.83 4554.5,1082.5C 4568.05,1080.03 4581.05,1075.86 4593.5,1070C 4607.61,1061.52 4615.78,1049.02 4618,1032.5C 4618.93,1027.2 4619.6,1021.87 4620,1016.5C 4620.67,985.167 4620.67,953.833 4620,922.5C 4568.33,851.833 4516.67,781.167 4465,710.5C 4447.76,688.748 4426.59,672.082 4401.5,660.5C 4400.51,657.232 4400.18,653.898 4400.5,650.5 Z"/></g>
</svg>
