<svg version="1" xmlns="http://www.w3.org/2000/svg" width="597.333" height="597.333" viewBox="0 0 448.000000 448.000000"><path d="M265.4 46c-1.8.6-5.4 3-8.1 5.4C248.8 59.1 243 74.7 243 90c0 10.6 2 19 6.4 27.8 10.1 20 28.7 22.9 41.2 6.5 3.8-5 7-13 9.1-22.8 4.2-19.4-4-44.8-17-52.9-5.2-3.2-12-4.2-17.3-2.6zM158.4 58.1c-10.5 2.5-16.8 13-16.7 27.9 0 10.5 2.1 19 7.6 30 5.3 10.8 19.2 25.5 27.9 29.5 15.8 7.2 28.8 4.1 35.1-8.5 5.9-11.8 4.4-27.7-4.4-45.8-4.2-8.7-6.2-11.5-13-18.3-12.2-12.2-25.2-17.5-36.5-14.8zM76.3 141.8c-12 4.3-16.9 11.5-16.1 23.7.6 8.6 4.6 16.9 12.2 25.2 13.9 15.2 33.7 23.9 52.6 23.1 10.1-.4 14.5-2 20.8-7.3 6.9-5.8 7.9-18.2 2.3-30.2-3.7-7.9-16.3-20.9-25.4-26.2-15-8.8-35-12.4-46.4-8.3zM251.5 157.5c-11.8 1.8-19.9 4.3-30.2 9.1-28.8 13.3-50.8 38-60.1 67.4-4.3 13.6-5.5 23.6-4.9 40.8 1 29.3 10.1 51.4 29.9 72.8 24.3 26 58.5 38.5 96.7 35.4 10.3-.8 24.1-3.5 30.4-5.9 2.4-.9 3.3-.7 7.5 2.3 15.4 11 42.8 20.2 66.7 22.5 5 .4 9.1.7 9.3.6.1-.1-2.3-1.5-5.3-3-8.3-4-19.3-13.2-27.2-22.7-7.5-8.9-14.3-18.6-14.3-20.3 0-.6 2.5-3.5 5.6-6.5 21.8-21.4 32.5-48 32.6-80.4 0-32.7-10.7-58.4-33.6-81.1-17.4-17.2-38.6-27.6-64.3-31.4-9.4-1.4-28.7-1.2-38.8.4zm94.1 58.8c3.2 3.7 3.2 8.7 0 12.4l-2.4 2.8H200.8l-2.4-2.8c-2.6-3-3.1-7.5-1.3-10.8 2.6-4.9 2.7-4.9 76.7-4.6l69.4.2 2.4 2.8zm-3.1 45.1c6.3 2.6 7.5 9.7 2.6 14.7l-2.9 2.9H201.8l-2.9-2.9c-4.9-4.9-3.3-12.5 3.1-15 1.5-.6 28.3-1 69.8-1 55.8-.1 67.8.1 70.7 1.3zm2.9 49.2c3.6 3.7 3.6 9.1 0 12.8l-2.7 2.6H201.2l-2.6-3.1c-1.5-1.7-2.6-4.3-2.6-5.9 0-1.6 1.1-4.2 2.6-5.9l2.6-3.1h141.5l2.7 2.6zM86 243c-12.3 1.3-21.8 5.1-29.1 11.7-5.4 4.9-7.9 10-7.9 16.3 0 16 19 28 44.5 28.1 17 .1 30.5-4.9 38.9-14.2 8.4-9.3 8.2-18.8-.4-28.3-9.6-10.4-27.1-15.6-46-13.6z"/></svg>