<?xml version="1.0" standalone="no"?>
<!DOCTYPE svg PUBLIC "-//W3C//DTD SVG 20010904//EN"
 "http://www.w3.org/TR/2001/REC-SVG-20010904/DTD/svg10.dtd">
<svg version="1.0" xmlns="http://www.w3.org/2000/svg"
 width="448.000000pt" height="448.000000pt" viewBox="0 0 448.000000 448.000000"
 preserveAspectRatio="xMidYMid meet">
<metadata>
Created by potrace 1.11, written by Peter Selinger 2001-2013
</metadata>
<g transform="translate(0.000000,448.000000) scale(0.100000,-0.100000)"
fill="#000000" stroke="none">
<path d="M2613 4000 c-28 -16 -63 -45 -77 -63 -32 -42 -74 -134 -92 -200 -19
-71 -18 -244 2 -321 34 -130 115 -244 197 -275 45 -17 124 -13 165 8 118 60
202 237 202 428 0 105 -14 170 -57 263 -78 172 -211 234 -340 160z"/>
<path d="M1555 3892 c-58 -28 -102 -80 -126 -148 -43 -120 -9 -312 83 -469 57
-98 177 -214 262 -254 127 -61 228 -52 307 28 146 145 87 478 -124 697 -102
108 -190 156 -292 161 -54 3 -79 -1 -110 -15z"/>
<path d="M824 3078 c-147 -16 -229 -100 -228 -234 0 -62 5 -82 37 -147 170
-344 742 -494 867 -228 89 190 -113 474 -411 578 -85 29 -181 41 -265 31z"/>
<path d="M2604 2920 c-352 -28 -670 -215 -867 -508 -257 -383 -244 -937 31
-1302 178 -236 407 -384 692 -446 64 -14 127 -19 260 -19 177 0 227 7 367 47
l72 21 53 -35 c180 -120 452 -207 693 -222 l90 -6 -52 24 c-74 35 -138 80
-212 150 -64 61 -170 191 -209 255 l-21 34 76 81 c93 101 180 229 221 327 157
379 109 820 -125 1134 -70 94 -194 215 -283 275 -144 98 -347 171 -511 185
-149 12 -176 12 -275 5z m850 -611 c30 -35 32 -58 11 -99 -11 -20 -27 -32 -55
-40 -26 -7 -260 -10 -715 -8 l-677 3 -30 34 c-24 27 -29 39 -24 64 4 17 16 41
28 54 l21 23 708 0 707 0 26 -31z m-3 -468 c16 -16 29 -39 29 -51 0 -33 -26
-75 -55 -88 -19 -9 -200 -12 -706 -12 -744 0 -724 -2 -748 58 -16 37 -5 77 26
102 25 20 43 20 725 20 l700 0 29 -29z m1 -471 c26 -27 30 -36 25 -68 -4 -22
-17 -46 -32 -59 l-26 -23 -697 0 c-764 0 -726 -3 -752 60 -10 24 -10 36 0 60
26 63 -12 60 753 60 l699 0 30 -30z"/>
<path d="M792 2045 c-245 -53 -371 -227 -277 -380 39 -62 133 -128 228 -157
95 -30 281 -32 372 -4 167 50 275 155 275 266 0 50 -40 129 -85 169 -114 100
-333 145 -513 106z"/>
</g>
</svg>
