<?xml version="1.0" encoding="UTF-8"?>
<svg width="80px" height="80px" viewBox="0 0 80 80" version="1.1" xmlns="http://www.w3.org/2000/svg" xmlns:xlink="http://www.w3.org/1999/xlink" style="background: #3B5998;">
    <!-- Generator: Sketch 3.8.2 (29753) - http://www.bohemiancoding.com/sketch -->
    <title>facebook</title>
    <desc>Created with Sketch.</desc>
    <defs></defs>
    <g id="Page-1" stroke="none" stroke-width="1" fill="none" fill-rule="evenodd">
        <g id="facebook">
            <rect id="Rectangle-1" fill="#273B66" x="0" y="70" width="80" height="10"></rect>
            <path d="M36.2889018,38.2459211 L36.2889018,53.5299988 L42.6581535,53.5299988 L42.6581535,38.2459211 L47.9487148,38.2459211 L48.76686,32.2852113 L42.6581535,32.2852113 L42.6581535,28.4541312 C42.6581535,27.5156776 42.8821892,26.7929234 43.2920915,26.2874784 C43.7019938,25.8174467 44.4836295,25.5647242 45.6751674,25.5647242 L48.9162171,25.5647242 L48.9162171,20.2527225 C47.7993577,20.0724364 46.2344269,20 44.1865747,20 C41.8018393,20 39.8651752,20.6857311 38.4496016,22.0604128 C36.9975184,23.4318751 36.2889018,25.3828284 36.2889018,27.8762498 L36.2889018,32.2852113 L31,32.2852113 L31,38.2459211 L36.2889018,38.2459211" id="Fill-22" fill="#FFFFFF"></path>
        </g>
    </g>
</svg>