<?xml version="1.0" encoding="UTF-8"?>
<svg width="80px" height="80px" viewBox="0 0 80 80" version="1.1" xmlns="http://www.w3.org/2000/svg" xmlns:xlink="http://www.w3.org/1999/xlink" style="background: #E14A41;">
    <!-- Generator: Sketch 3.8.2 (29753) - http://www.bohemiancoding.com/sketch -->
    <title>gplus-v</title>
    <desc>Created with Sketch.</desc>
    <defs></defs>
    <g id="Page-1" stroke="none" stroke-width="1" fill="none" fill-rule="evenodd">
        <g id="gplus-v">
            <rect id="Rectangle-1" fill="#AE2E26" transform="translate(75.000000, 40.000000) rotate(90.000000) translate(-75.000000, -40.000000) " x="35" y="35" width="80" height="10"></rect>
            <path d="M19.7582039,52.9176642 C20.5164078,54.2183622 21.6738359,55.1214459 23.1902437,55.699355 C24.7436764,56.2418491 26.4065737,56.5299988 28.177326,56.5299988 C30.3086678,56.5299988 32.2967396,56.1323844 34.1753468,55.3741805 C36.053954,54.6159766 37.4625069,53.3877184 38.4380304,51.7602361 C39.0883794,50.6414427 39.4135539,49.4840146 39.4135539,48.2557564 C39.4135539,47.2077931 39.1978441,46.2692944 38.7632049,45.4016258 C38.3301755,44.5339572 37.8247062,43.8481931 37.2097722,43.305699 C36.6318631,42.7648147 36.0169291,42.2947604 35.403605,41.8247062 C34.788671,41.3916768 34.2477867,40.9216226 33.8131475,40.4869834 C33.3801181,40.0185389 33.1627985,39.5484847 33.1627985,39.0430154 C33.1627985,38.6083762 33.344703,38.1753468 33.6698775,37.7423174 C33.995052,37.3076782 34.3910566,36.8746488 34.8611109,36.4770344 C35.3311651,36.07942 35.8012193,35.6463906 36.2712736,35.1763364 C36.739718,34.7062822 37.1373324,34.092958 37.4625069,33.2977292 C37.7876814,32.5379155 37.9695859,31.6718567 37.9695859,30.6963332 C37.9695859,29.468075 37.7152415,28.4201117 37.2097722,27.4800032 C36.704303,26.5398947 35.9460991,25.6368111 34.9335507,24.7707523 L37.5719716,24.7707523 L40.3536624,23 L31.9345403,23 C30.4165227,23 28.970945,23.2157098 27.526977,23.650349 C26.1168143,24.0833784 24.8885561,24.7337274 23.8405927,25.6368111 C23.009949,26.3596 22.3596,27.2272686 21.8541307,28.2752319 C21.3840764,29.3231953 21.1313418,30.3711587 21.1313418,31.4915619 C21.1313418,33.478024 21.8171059,35.1038965 23.1902437,36.4045945 C24.5279666,37.7052926 26.226279,38.3556416 28.212741,38.3556416 C28.5025005,38.3556416 28.970945,38.3202265 29.5858789,38.2832017 C29.2977292,38.9335507 29.1528495,39.4760448 29.1528495,39.9815141 C29.1528495,40.5240082 29.2607044,40.9940624 29.478024,41.4270918 C29.6583188,41.8601213 29.9834933,42.3672003 30.4165227,42.9451095 C26.7671633,43.1608193 24.0579123,43.8481931 22.2871601,44.9315715 C21.2762215,45.5465055 20.4809928,46.3417342 19.9030836,47.2448179 C19.2881497,48.1833166 19,49.1958649 19,50.2792433 C19,51.2193518 19.2527346,52.1224354 19.7582039,52.9176642 L19.7582039,52.9176642 Z M23.2997084,47.2448179 C23.660298,46.5944689 24.1303522,46.0873898 24.6728463,45.7268003 C25.2507554,45.3662107 25.9011045,45.0410362 26.6238933,44.7883016 C27.3820973,44.570982 28.1048861,44.3906872 28.7906502,44.2812225 C29.478024,44.2087827 30.2008129,44.1733676 30.9236018,44.1733676 C31.3212161,44.1733676 31.6463906,44.1733676 31.8621004,44.2087827 C31.8991253,44.2087827 32.1518599,44.3906872 32.6219141,44.7158617 C33.0549436,45.0410362 33.344703,45.256746 33.4525579,45.3291859 C33.5604128,45.4016258 33.8131475,45.5819205 34.2107618,45.907095 C34.5729612,46.2322695 34.8256958,46.4495891 34.9705755,46.5944689 C35.1138455,46.7747636 35.29575,46.9920832 35.5838997,47.3172577 C35.8366344,47.6054074 36.0169291,47.8951669 36.1263938,48.1479015 C36.2342487,48.4006362 36.3066886,48.6533708 36.4145435,48.9785453 C36.5240082,49.3037198 36.5594232,49.6288943 36.5594232,49.9910936 C36.5594232,50.8217374 36.3791285,51.5445263 36.0169291,52.1578505 C35.6209245,52.8081995 35.1508703,53.2782537 34.5359363,53.6404531 C33.9226122,54.0010426 33.2352383,54.2537772 32.5124495,54.434072 C31.7896606,54.6159766 31.0314567,54.6884164 30.2732527,54.6884164 C29.4055841,54.6884164 28.5379155,54.5789518 27.7072718,54.398657 C26.8396032,54.2183622 26.0443744,53.8931877 25.2861705,53.4955733 C24.5279666,53.097959 23.9130326,52.5554649 23.4429784,51.8342858 C22.9745339,51.1098871 22.7572143,50.2792433 22.7572143,49.3407446 C22.7572143,48.5455159 22.9375091,47.8581421 23.2997084,47.2448179 L23.2997084,47.2448179 Z M25.8286646,26.1068653 C26.1538391,25.6738359 26.6238933,25.3116366 27.1647777,25.0589019 C27.7072718,24.8061673 28.2497659,24.6612876 28.827675,24.6612876 C29.6583188,24.6612876 30.4535475,24.951047 31.1763364,25.4919314 C31.8991253,26.0344255 32.4770344,26.7217993 32.8746488,27.5878581 C33.3076782,28.4201117 33.6328527,29.2861705 33.8501723,30.1892541 C34.1029069,31.0939476 34.2107618,31.9245914 34.2107618,32.7198201 C34.2107618,34.0559332 33.8501723,35.1393116 33.1273834,35.8991253 C32.8022089,36.2597148 32.3321547,36.5494743 31.7896606,36.7667939 C31.2487763,37.0195285 30.7416972,37.1273834 30.2362279,37.1273834 C29.5134391,37.1273834 28.86309,36.9470886 28.2851809,36.5848893 C27.6718567,36.2597148 27.1647777,35.7912704 26.7671633,35.2487763 C26.3695489,34.7062822 26.0089594,34.0559332 25.7191999,33.3701691 C25.4310502,32.6827953 25.2137306,31.9970312 25.1058757,31.3096574 C24.960996,30.6238933 24.8885561,29.9365195 24.8885561,29.3231953 C24.8885561,27.9854725 25.2137306,26.9020941 25.8286646,26.1068653 L25.8286646,26.1068653 Z M44.473076,39.2233102 L44.473076,43.6308735 L46.6044178,43.6308735 L46.6044178,39.2233102 L50.8687112,39.2233102 L50.8687112,37.0549436 L46.6044178,37.0549436 L46.6044178,32.6827953 L44.473076,32.6827953 L44.473076,37.0549436 L40.2458075,37.0549436 L40.2458075,39.2233102 L44.473076,39.2233102 L44.473076,39.2233102 Z" id="Fill-1" fill="#FFFFFF"></path>
        </g>
    </g>
</svg>