<?xml version="1.0" encoding="UTF-8"?>
<svg width="80px" height="80px" viewBox="0 0 80 80" version="1.1" xmlns="http://www.w3.org/2000/svg" xmlns:xlink="http://www.w3.org/1999/xlink" style="background: #E14A41;">
    <!-- Generator: Sketch 3.8.2 (29753) - http://www.bohemiancoding.com/sketch -->
    <title>gplus</title>
    <desc>Created with Sketch.</desc>
    <defs></defs>
    <g id="Page-1" stroke="none" stroke-width="1" fill="none" fill-rule="evenodd">
        <g id="gplus">
            <rect id="Rectangle-1" fill="#AE2E26" x="0" y="70" width="80" height="10"></rect>
            <path d="M24.7582039,49.9176642 C25.5164078,51.2183622 26.6738359,52.1214459 28.1902437,52.699355 C29.7436764,53.2418491 31.4065737,53.5299988 33.177326,53.5299988 C35.3086678,53.5299988 37.2967396,53.1323844 39.1753468,52.3741805 C41.053954,51.6159766 42.4625069,50.3877184 43.4380304,48.7602361 C44.0883794,47.6414427 44.4135539,46.4840146 44.4135539,45.2557564 C44.4135539,44.2077931 44.1978441,43.2692944 43.7632049,42.4016258 C43.3301755,41.5339572 42.8247062,40.8481931 42.2097722,40.305699 C41.6318631,39.7648147 41.0169291,39.2947604 40.403605,38.8247062 C39.788671,38.3916768 39.2477867,37.9216226 38.8131475,37.4869834 C38.3801181,37.0185389 38.1627985,36.5484847 38.1627985,36.0430154 C38.1627985,35.6083762 38.344703,35.1753468 38.6698775,34.7423174 C38.995052,34.3076782 39.3910566,33.8746488 39.8611109,33.4770344 C40.3311651,33.07942 40.8012193,32.6463906 41.2712736,32.1763364 C41.739718,31.7062822 42.1373324,31.092958 42.4625069,30.2977292 C42.7876814,29.5379155 42.9695859,28.6718567 42.9695859,27.6963332 C42.9695859,26.468075 42.7152415,25.4201117 42.2097722,24.4800032 C41.704303,23.5398947 40.9460991,22.6368111 39.9335507,21.7707523 L42.5719716,21.7707523 L45.3536624,20 L36.9345403,20 C35.4165227,20 33.970945,20.2157098 32.526977,20.650349 C31.1168143,21.0833784 29.8885561,21.7337274 28.8405927,22.6368111 C28.009949,23.3596 27.3596,24.2272686 26.8541307,25.2752319 C26.3840764,26.3231953 26.1313418,27.3711587 26.1313418,28.4915619 C26.1313418,30.478024 26.8171059,32.1038965 28.1902437,33.4045945 C29.5279666,34.7052926 31.226279,35.3556416 33.212741,35.3556416 C33.5025005,35.3556416 33.970945,35.3202265 34.5858789,35.2832017 C34.2977292,35.9335507 34.1528495,36.4760448 34.1528495,36.9815141 C34.1528495,37.5240082 34.2607044,37.9940624 34.478024,38.4270918 C34.6583188,38.8601213 34.9834933,39.3672003 35.4165227,39.9451095 C31.7671633,40.1608193 29.0579123,40.8481931 27.2871601,41.9315715 C26.2762215,42.5465055 25.4809928,43.3417342 24.9030836,44.2448179 C24.2881497,45.1833166 24,46.1958649 24,47.2792433 C24,48.2193518 24.2527346,49.1224354 24.7582039,49.9176642 L24.7582039,49.9176642 Z M28.2997084,44.2448179 C28.660298,43.5944689 29.1303522,43.0873898 29.6728463,42.7268003 C30.2507554,42.3662107 30.9011045,42.0410362 31.6238933,41.7883016 C32.3820973,41.570982 33.1048861,41.3906872 33.7906502,41.2812225 C34.478024,41.2087827 35.2008129,41.1733676 35.9236018,41.1733676 C36.3212161,41.1733676 36.6463906,41.1733676 36.8621004,41.2087827 C36.8991253,41.2087827 37.1518599,41.3906872 37.6219141,41.7158617 C38.0549436,42.0410362 38.344703,42.256746 38.4525579,42.3291859 C38.5604128,42.4016258 38.8131475,42.5819205 39.2107618,42.907095 C39.5729612,43.2322695 39.8256958,43.4495891 39.9705755,43.5944689 C40.1138455,43.7747636 40.29575,43.9920832 40.5838997,44.3172577 C40.8366344,44.6054074 41.0169291,44.8951669 41.1263938,45.1479015 C41.2342487,45.4006362 41.3066886,45.6533708 41.4145435,45.9785453 C41.5240082,46.3037198 41.5594232,46.6288943 41.5594232,46.9910936 C41.5594232,47.8217374 41.3791285,48.5445263 41.0169291,49.1578505 C40.6209245,49.8081995 40.1508703,50.2782537 39.5359363,50.6404531 C38.9226122,51.0010426 38.2352383,51.2537772 37.5124495,51.434072 C36.7896606,51.6159766 36.0314567,51.6884164 35.2732527,51.6884164 C34.4055841,51.6884164 33.5379155,51.5789518 32.7072718,51.398657 C31.8396032,51.2183622 31.0443744,50.8931877 30.2861705,50.4955733 C29.5279666,50.097959 28.9130326,49.5554649 28.4429784,48.8342858 C27.9745339,48.1098871 27.7572143,47.2792433 27.7572143,46.3407446 C27.7572143,45.5455159 27.9375091,44.8581421 28.2997084,44.2448179 L28.2997084,44.2448179 Z M30.8286646,23.1068653 C31.1538391,22.6738359 31.6238933,22.3116366 32.1647777,22.0589019 C32.7072718,21.8061673 33.2497659,21.6612876 33.827675,21.6612876 C34.6583188,21.6612876 35.4535475,21.951047 36.1763364,22.4919314 C36.8991253,23.0344255 37.4770344,23.7217993 37.8746488,24.5878581 C38.3076782,25.4201117 38.6328527,26.2861705 38.8501723,27.1892541 C39.1029069,28.0939476 39.2107618,28.9245914 39.2107618,29.7198201 C39.2107618,31.0559332 38.8501723,32.1393116 38.1273834,32.8991253 C37.8022089,33.2597148 37.3321547,33.5494743 36.7896606,33.7667939 C36.2487763,34.0195285 35.7416972,34.1273834 35.2362279,34.1273834 C34.5134391,34.1273834 33.86309,33.9470886 33.2851809,33.5848893 C32.6718567,33.2597148 32.1647777,32.7912704 31.7671633,32.2487763 C31.3695489,31.7062822 31.0089594,31.0559332 30.7191999,30.3701691 C30.4310502,29.6827953 30.2137306,28.9970312 30.1058757,28.3096574 C29.960996,27.6238933 29.8885561,26.9365195 29.8885561,26.3231953 C29.8885561,24.9854725 30.2137306,23.9020941 30.8286646,23.1068653 L30.8286646,23.1068653 Z M49.473076,36.2233102 L49.473076,40.6308735 L51.6044178,40.6308735 L51.6044178,36.2233102 L55.8687112,36.2233102 L55.8687112,34.0549436 L51.6044178,34.0549436 L51.6044178,29.6827953 L49.473076,29.6827953 L49.473076,34.0549436 L45.2458075,34.0549436 L45.2458075,36.2233102 L49.473076,36.2233102 L49.473076,36.2233102 Z" id="Fill-1" fill="#FFFFFF"></path>
        </g>
    </g>
</svg>