<?xml version="1.0" encoding="UTF-8"?>
<svg width="80px" height="80px" viewBox="0 0 80 80" version="1.1" xmlns="http://www.w3.org/2000/svg" xmlns:xlink="http://www.w3.org/1999/xlink" style="background: #007CB4;">
    <!-- Generator: Sketch 3.8.2 (29753) - http://www.bohemiancoding.com/sketch -->
    <title>linkedin-v</title>
    <desc>Created with Sketch.</desc>
    <defs></defs>
    <g id="Page-1" stroke="none" stroke-width="1" fill="none" fill-rule="evenodd">
        <g id="linkedin-v">
            <rect id="Rectangle-1" fill="#005F8B" transform="translate(75.000000, 40.000000) rotate(90.000000) translate(-75.000000, -40.000000) " x="35" y="35" width="80" height="10"></rect>
            <path d="M18.1454517,29.7140252 C18.8823347,30.4509082 19.9074046,30.8193497 21.1349348,30.8193497 L21.1768861,30.8193497 C22.4864949,30.8193497 23.5097408,30.4509082 24.2867511,29.7140252 C25.0655853,28.935191 25.4340268,28.0341509 25.4340268,26.8886992 C25.4340268,25.7833748 25.023634,24.8422074 24.2867511,24.1053244 C23.5498681,23.3684415 22.5266222,23 21.2571407,23 C19.9876591,23 18.9644132,23.3684415 18.187403,24.1053244 C17.4085688,24.8422074 17,25.7833748 17,26.8886992 C17,28.0341509 17.3684415,28.935191 18.1454517,29.7140252 L18.1454517,29.7140252 Z M17.45052,56.5299988 L24.9835068,56.5299988 L24.9835068,33.9310386 L17.45052,33.9310386 L17.45052,56.5299988 Z M36.6514283,56.5299988 L36.6514283,43.9190859 C36.6514283,43.1420756 36.7335069,42.5273985 36.897664,42.0768785 C37.2241542,41.2998682 37.7166255,40.6450638 38.3714299,40.1124652 C38.984283,39.5798667 39.8032446,39.333631 40.7863632,39.333631 C42.095972,39.333631 43.0371393,39.7841511 43.6518165,40.6851911 C44.2664936,41.5862312 44.5929838,42.8557127 44.5929838,44.4516845 L44.5929838,56.5299988 L52.1259705,56.5299988 L52.1259705,43.5925957 C52.1259705,40.2346711 51.3489603,37.697532 49.7529885,35.9775304 C48.1551928,34.2575288 46.0667497,33.39844 43.4475321,33.39844 C42.5063647,33.39844 41.6053247,33.5206459 40.8264905,33.7668815 C40.0494802,33.9711659 39.3946758,34.2994801 38.8219499,34.7481761 C38.2893513,35.1585689 37.8789586,35.5671377 37.5524684,35.9374031 C37.2241542,36.3040206 36.897664,36.7144134 36.6094771,37.2050607 L36.6514283,37.2050607 L36.6514283,33.9310386 L29.1184416,33.9310386 L29.1585689,35.036363 L29.1585689,41.7905156 C29.1585689,45.5570089 29.1585689,50.470778 29.1184416,56.5299988 L36.6514283,56.5299988 L36.6514283,56.5299988 Z" id="Fill-54" fill="#FFFFFF"></path>
        </g>
    </g>
</svg>