<?xml version="1.0" encoding="UTF-8"?>
<svg width="80px" height="80px" viewBox="0 0 80 80" version="1.1" xmlns="http://www.w3.org/2000/svg" xmlns:xlink="http://www.w3.org/1999/xlink" style="background: #007CB4;">
    <!-- Generator: Sketch 3.8.2 (29753) - http://www.bohemiancoding.com/sketch -->
    <title>linkedin</title>
    <desc>Created with Sketch.</desc>
    <defs></defs>
    <g id="Page-1" stroke="none" stroke-width="1" fill="none" fill-rule="evenodd">
        <g id="linkedin">
            <rect id="Rectangle-1" fill="#005F8B" x="0" y="66" width="80" height="14"></rect>
            <path d="M24.1454517,26.7140252 C24.8823347,27.4509082 25.9074046,27.8193497 27.1349348,27.8193497 L27.1768861,27.8193497 C28.4864949,27.8193497 29.5097408,27.4509082 30.2867511,26.7140252 C31.0655853,25.935191 31.4340268,25.0341509 31.4340268,23.8886992 C31.4340268,22.7833748 31.023634,21.8422074 30.2867511,21.1053244 C29.5498681,20.3684415 28.5266222,20 27.2571407,20 C25.9876591,20 24.9644132,20.3684415 24.187403,21.1053244 C23.4085688,21.8422074 23,22.7833748 23,23.8886992 C23,25.0341509 23.3684415,25.935191 24.1454517,26.7140252 L24.1454517,26.7140252 Z M23.45052,53.5299988 L30.9835068,53.5299988 L30.9835068,30.9310386 L23.45052,30.9310386 L23.45052,53.5299988 Z M42.6514283,53.5299988 L42.6514283,40.9190859 C42.6514283,40.1420756 42.7335069,39.5273985 42.897664,39.0768785 C43.2241542,38.2998682 43.7166255,37.6450638 44.3714299,37.1124652 C44.984283,36.5798667 45.8032446,36.333631 46.7863632,36.333631 C48.095972,36.333631 49.0371393,36.7841511 49.6518165,37.6851911 C50.2664936,38.5862312 50.5929838,39.8557127 50.5929838,41.4516845 L50.5929838,53.5299988 L58.1259705,53.5299988 L58.1259705,40.5925957 C58.1259705,37.2346711 57.3489603,34.697532 55.7529885,32.9775304 C54.1551928,31.2575288 52.0667497,30.39844 49.4475321,30.39844 C48.5063647,30.39844 47.6053247,30.5206459 46.8264905,30.7668815 C46.0494802,30.9711659 45.3946758,31.2994801 44.8219499,31.7481761 C44.2893513,32.1585689 43.8789586,32.5671377 43.5524684,32.9374031 C43.2241542,33.3040206 42.897664,33.7144134 42.6094771,34.2050607 L42.6514283,34.2050607 L42.6514283,30.9310386 L35.1184416,30.9310386 L35.1585689,32.036363 L35.1585689,38.7905156 C35.1585689,42.5570089 35.1585689,47.470778 35.1184416,53.5299988 L42.6514283,53.5299988 L42.6514283,53.5299988 Z" id="Fill-54" fill="#FFFFFF"></path>
        </g>
    </g>
</svg>