<?xml version="1.0" encoding="UTF-8"?>
<svg width="80px" height="80px" viewBox="0 0 80 80" version="1.1" xmlns="http://www.w3.org/2000/svg" xmlns:xlink="http://www.w3.org/1999/xlink" style="background: #FF3C20;">
    <!-- Generator: Sketch 3.8.2 (29753) - http://www.bohemiancoding.com/sketch -->
    <title>reddit</title>
    <desc>Created with Sketch.</desc>
    <defs></defs>
    <g id="Page-1" stroke="none" stroke-width="1" fill="none" fill-rule="evenodd">
        <g id="reddit">
            <rect id="Rectangle-1" fill="#C22A14" x="0" y="70" width="80" height="10"></rect>
            <path d="M20.5778814,38.6435164 C20.9754767,39.3292475 21.4825314,39.8717156 22.1312395,40.2693108 C22.0604128,40.7747558 22.0233897,41.2093742 22.0233897,41.6069694 C22.0233897,43.2327639 22.4934214,44.786122 23.3964617,46.2316303 C24.336525,47.712552 25.672574,49.0131876 27.4078279,50.1335371 C29.0690357,51.2168635 30.9845757,52.0844904 33.1158152,52.6623718 C35.2840777,53.2402532 37.56019,53.5299988 39.9087386,53.5299988 C42.2572872,53.5299988 44.5333995,53.2402532 46.664639,52.6623718 C48.8329015,52.0844904 50.7484415,51.2168635 52.4450627,50.1335371 C54.1803166,49.0131876 55.4809521,47.712552 56.4194058,46.2316303 C57.3240558,44.786122 57.7924777,43.2327639 57.7924777,41.6069694 C57.7924777,41.2093742 57.7570644,40.8117789 57.684628,40.3771606 C58.4073822,39.9795653 58.9498502,39.4387069 59.3828589,38.7159528 C59.7804541,38.0286119 59.9977633,37.2704444 59.9977633,36.4398405 C59.9977633,35.1746183 59.563145,34.0912919 58.6601047,33.1882516 C57.7924777,32.2852113 56.7091513,31.8505929 55.4439291,31.8505929 C54.252753,31.8505929 53.2772763,32.2481882 52.4096493,33.0063557 C49.2659101,30.9845757 45.5088762,29.8642262 41.1015244,29.6839401 L43.4484634,22.2761123 L49.8083782,23.794057 C49.8083782,24.804947 50.2059735,25.7079873 50.9287276,26.4307415 C51.6514818,27.1534957 52.5174991,27.5156776 53.5654121,27.5156776 C54.5779118,27.5156776 55.4439291,27.1534957 56.2037063,26.3953281 C56.9264605,25.672574 57.2870327,24.7695337 57.2870327,23.7216206 C57.2870327,22.7091209 56.9264605,21.8431036 56.2037063,21.0833264 C55.4439291,20.3605722 54.5779118,20 53.5654121,20 C52.8072446,20 52.1199038,20.2173092 51.469586,20.6149044 C50.8562912,21.0479131 50.3862596,21.5903811 50.096514,22.2761123 L43.0878911,20.6149044 C42.907605,20.5778814 42.7273189,20.5778814 42.5454231,20.6873408 C42.365137,20.7951906 42.2202642,20.9400633 42.1848508,21.1203495 L39.4741203,29.6469171 C34.8494594,29.7193535 30.8751163,30.8397029 27.5510909,32.9709424 C26.6480506,32.2127749 25.672574,31.8505929 24.5522245,31.8505929 C23.288612,31.8505929 22.2036759,32.2852113 21.3376586,33.1882516 C20.4346183,34.0912919 20,35.1746183 20,36.4398405 C20,37.2350311 20.1802861,37.9577852 20.5778814,38.6435164 L20.5778814,38.6435164 Z M22.420985,34.271578 C22.9988664,33.6936966 23.7216206,33.403951 24.5522245,33.403951 C25.167129,33.403951 25.709597,33.5858468 26.215042,33.9110057 C24.4443748,35.319491 23.2161756,36.9098722 22.5658578,38.6789297 C21.878517,38.065635 21.5533581,37.3428808 21.5533581,36.4398405 C21.5533581,35.6092366 21.8431036,34.8864824 22.420985,34.271578 L22.420985,34.271578 Z M28.2384318,34.3440144 C29.7917898,33.3315146 31.5978704,32.5733471 33.6212602,32.0308791 C35.6092366,31.4900207 37.7050627,31.2002752 39.9087386,31.2002752 C42.1124145,31.2002752 44.2082406,31.4900207 46.2316303,32.0308791 C48.2550201,32.5733471 50.0256873,33.3315146 51.5790454,34.3440144 C53.0953805,35.3549044 54.252753,36.4398405 55.0479435,37.703453 C55.8415244,38.9332619 56.2391197,40.2338975 56.2391197,41.6069694 C56.2391197,42.9430184 55.8415244,44.2436539 55.0479435,45.5088762 C54.252753,46.7370754 53.0953805,47.8574248 51.5790454,48.8329015 C50.0256873,49.8437915 48.2550201,50.6035687 46.2316303,51.1444271 C44.2082406,51.6868951 42.1124145,51.975031 39.9087386,51.975031 C37.7050627,51.975031 35.6092366,51.6868951 33.6212602,51.1444271 C31.5978704,50.6035687 29.7917898,49.8437915 28.2384318,48.8329015 C26.720487,47.8574248 25.5647242,46.7370754 24.7695337,45.5088762 C23.9743431,44.2436539 23.5767478,42.9430184 23.5767478,41.6069694 C23.5767478,40.2338975 23.9743431,38.9332619 24.7695337,37.703453 C25.5647242,36.4398405 26.720487,35.3549044 28.2384318,34.3440144 L28.2384318,34.3440144 Z M32.0324888,41.3896603 C32.5733471,41.9321283 33.2236649,42.1848508 34.0188555,42.1848508 C34.7416096,42.1848508 35.3919274,41.9321283 35.9343955,41.3896603 C36.4752538,40.8471922 36.7649994,40.1968744 36.7649994,39.4387069 C36.7649994,38.6789297 36.4752538,38.0286119 35.9343955,37.4877536 C35.3919274,36.9452855 34.7416096,36.65554 34.0188555,36.65554 C33.2606879,36.65554 32.6103702,36.9452855 32.0324888,37.4877536 C31.4900207,38.0286119 31.2002752,38.6789297 31.2002752,39.4387069 C31.2002752,40.1968744 31.4900207,40.8471922 32.0324888,41.3896603 L32.0324888,41.3896603 Z M33.5488238,47.3149568 C34.8864824,48.6510057 37.0177219,49.3013235 39.981175,49.3013235 L40.0165883,49.3013235 C42.9800414,49.3013235 45.1112809,48.6510057 46.4473298,47.3149568 C46.5922026,47.170084 46.664639,46.9897979 46.664639,46.7370754 C46.664639,46.5197662 46.5922026,46.3394801 46.4473298,46.1946073 C46.3040667,46.0497345 46.1221709,45.9772981 45.9064715,45.9772981 C45.6891623,45.9772981 45.5088762,46.0497345 45.3640034,46.1946073 C44.3160903,47.2425204 42.5454231,47.7479654 40.0165883,47.7479654 L39.981175,47.7479654 C37.4523402,47.7479654 35.681673,47.2425204 34.6337599,46.1946073 C34.4888871,46.0497345 34.308601,45.9772981 34.0912919,45.9772981 C33.8739827,45.9772981 33.6936966,46.0497345 33.5488238,46.1946073 C33.4055607,46.3394801 33.3331243,46.5197662 33.3331243,46.7370754 C33.3331243,46.9897979 33.4055607,47.170084 33.5488238,47.3149568 L33.5488238,47.3149568 Z M44.0633678,41.3896603 C44.6058359,41.9321283 45.2561537,42.1848508 46.0513442,42.1848508 C46.7724887,42.1848508 47.4244162,41.9321283 47.9652745,41.3896603 C48.5077426,40.8471922 48.7958785,40.1968744 48.7958785,39.4387069 C48.7958785,38.6789297 48.5077426,38.0286119 47.9652745,37.4877536 C47.4244162,36.9452855 46.7724887,36.65554 46.0513442,36.65554 C45.291567,36.65554 44.6412492,36.9452855 44.0633678,37.4877536 C43.5208998,38.0286119 43.2327639,38.6789297 43.2327639,39.4387069 C43.2327639,40.1968744 43.5208998,40.8471922 44.0633678,41.3896603 L44.0633678,41.3896603 Z M53.5654121,21.5533581 C54.1432935,21.5533581 54.6503482,21.7706672 55.0833569,22.2036759 C55.5163655,22.6382942 55.7336746,23.1437392 55.7336746,23.7216206 C55.7336746,24.336525 55.5163655,24.8419701 55.0833569,25.2749787 C54.6503482,25.7079873 54.1432935,25.9252965 53.5654121,25.9252965 C52.9521174,25.9252965 52.4450627,25.7079873 52.012054,25.2749787 C51.5790454,24.8419701 51.3617363,24.336525 51.3617363,23.7216206 C51.3617363,23.1437392 51.5790454,22.6382942 52.012054,22.2036759 C52.4450627,21.7706672 52.9521174,21.5533581 53.5654121,21.5533581 L53.5654121,21.5533581 Z M55.4439291,33.403951 C56.2761427,33.403951 56.9618738,33.6936966 57.5767783,34.271578 C58.1546597,34.8864824 58.4427955,35.6092366 58.4427955,36.4398405 C58.4427955,37.3782941 58.0468099,38.1734847 57.2870327,38.7883891 C56.673738,36.9823086 55.4809521,35.3919274 53.7102849,33.9834421 C54.2157299,33.5858468 54.7936113,33.403951 55.4439291,33.403951 L55.4439291,33.403951 Z" id="Fill-249" fill="#FFFFFF"></path>
        </g>
    </g>
</svg>