<?xml version="1.0" encoding="UTF-8"?>
<svg width="80px" height="80px" viewBox="0 0 80 80" version="1.1" xmlns="http://www.w3.org/2000/svg" xmlns:xlink="http://www.w3.org/1999/xlink" style="background: #FF3C20;">
    <!-- Generator: Sketch 3.8.2 (29753) - http://www.bohemiancoding.com/sketch -->
    <title>reddit-v</title>
    <desc>Created with Sketch.</desc>
    <defs></defs>
    <g id="Page-1" stroke="none" stroke-width="1" fill="none" fill-rule="evenodd">
        <g id="reddit-v">
            <rect id="Rectangle-1" fill="#C22A14" transform="translate(75.000000, 40.000000) rotate(90.000000) translate(-75.000000, -40.000000) " x="35" y="35" width="80" height="10"></rect>
            <path d="M15.5778814,41.6435164 C15.9754767,42.3292475 16.4825314,42.8717156 17.1312395,43.2693108 C17.0604128,43.7747558 17.0233897,44.2093742 17.0233897,44.6069694 C17.0233897,46.2327639 17.4934214,47.786122 18.3964617,49.2316303 C19.336525,50.712552 20.672574,52.0131876 22.4078279,53.1335371 C24.0690357,54.2168635 25.9845757,55.0844904 28.1158152,55.6623718 C30.2840777,56.2402532 32.56019,56.5299988 34.9087386,56.5299988 C37.2572872,56.5299988 39.5333995,56.2402532 41.664639,55.6623718 C43.8329015,55.0844904 45.7484415,54.2168635 47.4450627,53.1335371 C49.1803166,52.0131876 50.4809521,50.712552 51.4194058,49.2316303 C52.3240558,47.786122 52.7924777,46.2327639 52.7924777,44.6069694 C52.7924777,44.2093742 52.7570644,43.8117789 52.684628,43.3771606 C53.4073822,42.9795653 53.9498502,42.4387069 54.3828589,41.7159528 C54.7804541,41.0286119 54.9977633,40.2704444 54.9977633,39.4398405 C54.9977633,38.1746183 54.563145,37.0912919 53.6601047,36.1882516 C52.7924777,35.2852113 51.7091513,34.8505929 50.4439291,34.8505929 C49.252753,34.8505929 48.2772763,35.2481882 47.4096493,36.0063557 C44.2659101,33.9845757 40.5088762,32.8642262 36.1015244,32.6839401 L38.4484634,25.2761123 L44.8083782,26.794057 C44.8083782,27.804947 45.2059735,28.7079873 45.9287276,29.4307415 C46.6514818,30.1534957 47.5174991,30.5156776 48.5654121,30.5156776 C49.5779118,30.5156776 50.4439291,30.1534957 51.2037063,29.3953281 C51.9264605,28.672574 52.2870327,27.7695337 52.2870327,26.7216206 C52.2870327,25.7091209 51.9264605,24.8431036 51.2037063,24.0833264 C50.4439291,23.3605722 49.5779118,23 48.5654121,23 C47.8072446,23 47.1199038,23.2173092 46.469586,23.6149044 C45.8562912,24.0479131 45.3862596,24.5903811 45.096514,25.2761123 L38.0878911,23.6149044 C37.907605,23.5778814 37.7273189,23.5778814 37.5454231,23.6873408 C37.365137,23.7951906 37.2202642,23.9400633 37.1848508,24.1203495 L34.4741203,32.6469171 C29.8494594,32.7193535 25.8751163,33.8397029 22.5510909,35.9709424 C21.6480506,35.2127749 20.672574,34.8505929 19.5522245,34.8505929 C18.288612,34.8505929 17.2036759,35.2852113 16.3376586,36.1882516 C15.4346183,37.0912919 15,38.1746183 15,39.4398405 C15,40.2350311 15.1802861,40.9577852 15.5778814,41.6435164 L15.5778814,41.6435164 Z M17.420985,37.271578 C17.9988664,36.6936966 18.7216206,36.403951 19.5522245,36.403951 C20.167129,36.403951 20.709597,36.5858468 21.215042,36.9110057 C19.4443748,38.319491 18.2161756,39.9098722 17.5658578,41.6789297 C16.878517,41.065635 16.5533581,40.3428808 16.5533581,39.4398405 C16.5533581,38.6092366 16.8431036,37.8864824 17.420985,37.271578 L17.420985,37.271578 Z M23.2384318,37.3440144 C24.7917898,36.3315146 26.5978704,35.5733471 28.6212602,35.0308791 C30.6092366,34.4900207 32.7050627,34.2002752 34.9087386,34.2002752 C37.1124145,34.2002752 39.2082406,34.4900207 41.2316303,35.0308791 C43.2550201,35.5733471 45.0256873,36.3315146 46.5790454,37.3440144 C48.0953805,38.3549044 49.252753,39.4398405 50.0479435,40.703453 C50.8415244,41.9332619 51.2391197,43.2338975 51.2391197,44.6069694 C51.2391197,45.9430184 50.8415244,47.2436539 50.0479435,48.5088762 C49.252753,49.7370754 48.0953805,50.8574248 46.5790454,51.8329015 C45.0256873,52.8437915 43.2550201,53.6035687 41.2316303,54.1444271 C39.2082406,54.6868951 37.1124145,54.975031 34.9087386,54.975031 C32.7050627,54.975031 30.6092366,54.6868951 28.6212602,54.1444271 C26.5978704,53.6035687 24.7917898,52.8437915 23.2384318,51.8329015 C21.720487,50.8574248 20.5647242,49.7370754 19.7695337,48.5088762 C18.9743431,47.2436539 18.5767478,45.9430184 18.5767478,44.6069694 C18.5767478,43.2338975 18.9743431,41.9332619 19.7695337,40.703453 C20.5647242,39.4398405 21.720487,38.3549044 23.2384318,37.3440144 L23.2384318,37.3440144 Z M27.0324888,44.3896603 C27.5733471,44.9321283 28.2236649,45.1848508 29.0188555,45.1848508 C29.7416096,45.1848508 30.3919274,44.9321283 30.9343955,44.3896603 C31.4752538,43.8471922 31.7649994,43.1968744 31.7649994,42.4387069 C31.7649994,41.6789297 31.4752538,41.0286119 30.9343955,40.4877536 C30.3919274,39.9452855 29.7416096,39.65554 29.0188555,39.65554 C28.2606879,39.65554 27.6103702,39.9452855 27.0324888,40.4877536 C26.4900207,41.0286119 26.2002752,41.6789297 26.2002752,42.4387069 C26.2002752,43.1968744 26.4900207,43.8471922 27.0324888,44.3896603 L27.0324888,44.3896603 Z M28.5488238,50.3149568 C29.8864824,51.6510057 32.0177219,52.3013235 34.981175,52.3013235 L35.0165883,52.3013235 C37.9800414,52.3013235 40.1112809,51.6510057 41.4473298,50.3149568 C41.5922026,50.170084 41.664639,49.9897979 41.664639,49.7370754 C41.664639,49.5197662 41.5922026,49.3394801 41.4473298,49.1946073 C41.3040667,49.0497345 41.1221709,48.9772981 40.9064715,48.9772981 C40.6891623,48.9772981 40.5088762,49.0497345 40.3640034,49.1946073 C39.3160903,50.2425204 37.5454231,50.7479654 35.0165883,50.7479654 L34.981175,50.7479654 C32.4523402,50.7479654 30.681673,50.2425204 29.6337599,49.1946073 C29.4888871,49.0497345 29.308601,48.9772981 29.0912919,48.9772981 C28.8739827,48.9772981 28.6936966,49.0497345 28.5488238,49.1946073 C28.4055607,49.3394801 28.3331243,49.5197662 28.3331243,49.7370754 C28.3331243,49.9897979 28.4055607,50.170084 28.5488238,50.3149568 L28.5488238,50.3149568 Z M39.0633678,44.3896603 C39.6058359,44.9321283 40.2561537,45.1848508 41.0513442,45.1848508 C41.7724887,45.1848508 42.4244162,44.9321283 42.9652745,44.3896603 C43.5077426,43.8471922 43.7958785,43.1968744 43.7958785,42.4387069 C43.7958785,41.6789297 43.5077426,41.0286119 42.9652745,40.4877536 C42.4244162,39.9452855 41.7724887,39.65554 41.0513442,39.65554 C40.291567,39.65554 39.6412492,39.9452855 39.0633678,40.4877536 C38.5208998,41.0286119 38.2327639,41.6789297 38.2327639,42.4387069 C38.2327639,43.1968744 38.5208998,43.8471922 39.0633678,44.3896603 L39.0633678,44.3896603 Z M48.5654121,24.5533581 C49.1432935,24.5533581 49.6503482,24.7706672 50.0833569,25.2036759 C50.5163655,25.6382942 50.7336746,26.1437392 50.7336746,26.7216206 C50.7336746,27.336525 50.5163655,27.8419701 50.0833569,28.2749787 C49.6503482,28.7079873 49.1432935,28.9252965 48.5654121,28.9252965 C47.9521174,28.9252965 47.4450627,28.7079873 47.012054,28.2749787 C46.5790454,27.8419701 46.3617363,27.336525 46.3617363,26.7216206 C46.3617363,26.1437392 46.5790454,25.6382942 47.012054,25.2036759 C47.4450627,24.7706672 47.9521174,24.5533581 48.5654121,24.5533581 L48.5654121,24.5533581 Z M50.4439291,36.403951 C51.2761427,36.403951 51.9618738,36.6936966 52.5767783,37.271578 C53.1546597,37.8864824 53.4427955,38.6092366 53.4427955,39.4398405 C53.4427955,40.3782941 53.0468099,41.1734847 52.2870327,41.7883891 C51.673738,39.9823086 50.4809521,38.3919274 48.7102849,36.9834421 C49.2157299,36.5858468 49.7936113,36.403951 50.4439291,36.403951 L50.4439291,36.403951 Z" id="Fill-249" fill="#FFFFFF"></path>
        </g>
    </g>
</svg>