<?xml version="1.0" encoding="UTF-8"?>
<svg width="80px" height="80px" viewBox="0 0 80 80" version="1.1" xmlns="http://www.w3.org/2000/svg" xmlns:xlink="http://www.w3.org/1999/xlink" style="background: #00A3ED;">
    <!-- Generator: Sketch 3.8.2 (29753) - http://www.bohemiancoding.com/sketch -->
    <title>twitter</title>
    <desc>Created with Sketch.</desc>
    <defs></defs>
    <g id="Page-1" stroke="none" stroke-width="1" fill="none" fill-rule="evenodd">
        <g id="twitter">
            <rect id="Rectangle-1" fill="#0076AB" x="0" y="70" width="80" height="10"></rect>
            <path d="M31.9613342,53.5299988 C34.9678616,53.5299988 37.7839966,53.0613404 40.4620446,52.1219313 C43.0919715,51.1344011 45.3452979,49.8665127 47.224116,48.270145 C49.054813,46.6737773 50.6993019,44.8430803 52.0613404,42.775962 C53.3752577,40.6628147 54.4088169,38.5015462 55.0657755,36.2482198 C55.7248264,33.9948934 56.0533058,31.7394748 56.0533058,29.4380272 L56.0533058,28.3584391 C57.6957024,27.1386719 59.1058621,25.6824833 60.2796004,23.9919654 C58.6351115,24.6489241 57.0387438,25.1175825 55.3942549,25.2598538 C57.227044,24.1781734 58.4949324,22.6299269 59.1058621,20.6109297 C57.4613732,21.5963677 55.6767053,22.3014476 53.7518582,22.6759558 C52.0613404,20.8912879 49.994222,20 47.5525954,20 C45.2511478,20 43.2321506,20.7971377 41.5876617,22.4416266 C39.9452651,24.1321445 39.1000061,26.1051127 39.1000061,28.4525892 C39.1000061,29.063519 39.1941563,29.7204776 39.3343353,30.3774363 C35.8591495,30.2372572 32.6182929,29.3438771 29.5657365,27.7956306 C26.5613014,26.1992628 23.9774034,24.1321445 21.8642561,21.5503388 C21.1131473,22.8642561 20.6905178,24.2723236 20.6905178,25.8226623 C20.6905178,27.2307298 21.0671184,28.5927683 21.724077,29.8606567 C22.4291569,31.0825161 23.3204447,32.0679541 24.494183,32.8671841 C23.1321445,32.8190629 21.8642561,32.4445546 20.6444889,31.787596 L20.6444889,31.8817461 C20.6444889,33.9467722 21.3014476,35.7314402 22.5693359,37.281779 C23.8832533,38.8321177 25.479621,39.7694346 27.4525892,40.192064 C26.7014804,40.3803643 25.9503716,40.4745144 25.1992628,40.4745144 C24.7285122,40.4745144 24.2117326,40.4284855 23.6028951,40.3343353 C24.1657037,42.0248532 25.1511417,43.4329206 26.6073303,44.514601 C28.063519,45.6402181 29.7080078,46.2030266 31.5387048,46.2030266 C28.4401195,48.6467455 24.9649336,49.8204838 21.0189972,49.8204838 C20.2678884,49.8204838 19.6109297,49.8204838 19,49.7263336 C22.8978153,52.2621104 27.264289,53.5299988 31.9613342,53.5299988" id="Fill-178" fill="#FFFFFF"></path>
        </g>
    </g>
</svg>