<?xml version="1.0" encoding="UTF-8"?>
<svg width="80px" height="80px" viewBox="0 0 80 80" version="1.1" xmlns="http://www.w3.org/2000/svg" xmlns:xlink="http://www.w3.org/1999/xlink" style="background: #00A3ED;">
    <!-- Generator: Sketch 3.8.2 (29753) - http://www.bohemiancoding.com/sketch -->
    <title>twitter-v</title>
    <desc>Created with Sketch.</desc>
    <defs></defs>
    <g id="Page-1" stroke="none" stroke-width="1" fill="none" fill-rule="evenodd">
        <g id="twitter-v">
            <rect id="Rectangle-1" fill="#0076AB" transform="translate(75.000000, 40.000000) rotate(90.000000) translate(-75.000000, -40.000000) " x="35" y="35" width="80" height="10"></rect>
            <path d="M26.9613342,56.5299988 C29.9678616,56.5299988 32.7839966,56.0613404 35.4620446,55.1219313 C38.0919715,54.1344011 40.3452979,52.8665127 42.224116,51.270145 C44.054813,49.6737773 45.6993019,47.8430803 47.0613404,45.775962 C48.3752577,43.6628147 49.4088169,41.5015462 50.0657755,39.2482198 C50.7248264,36.9948934 51.0533058,34.7394748 51.0533058,32.4380272 L51.0533058,31.3584391 C52.6957024,30.1386719 54.1058621,28.6824833 55.2796004,26.9919654 C53.6351115,27.6489241 52.0387438,28.1175825 50.3942549,28.2598538 C52.227044,27.1781734 53.4949324,25.6299269 54.1058621,23.6109297 C52.4613732,24.5963677 50.6767053,25.3014476 48.7518582,25.6759558 C47.0613404,23.8912879 44.994222,23 42.5525954,23 C40.2511478,23 38.2321506,23.7971377 36.5876617,25.4416266 C34.9452651,27.1321445 34.1000061,29.1051127 34.1000061,31.4525892 C34.1000061,32.063519 34.1941563,32.7204776 34.3343353,33.3774363 C30.8591495,33.2372572 27.6182929,32.3438771 24.5657365,30.7956306 C21.5613014,29.1992628 18.9774034,27.1321445 16.8642561,24.5503388 C16.1131473,25.8642561 15.6905178,27.2723236 15.6905178,28.8226623 C15.6905178,30.2307298 16.0671184,31.5927683 16.724077,32.8606567 C17.4291569,34.0825161 18.3204447,35.0679541 19.494183,35.8671841 C18.1321445,35.8190629 16.8642561,35.4445546 15.6444889,34.787596 L15.6444889,34.8817461 C15.6444889,36.9467722 16.3014476,38.7314402 17.5693359,40.281779 C18.8832533,41.8321177 20.479621,42.7694346 22.4525892,43.192064 C21.7014804,43.3803643 20.9503716,43.4745144 20.1992628,43.4745144 C19.7285122,43.4745144 19.2117326,43.4284855 18.6028951,43.3343353 C19.1657037,45.0248532 20.1511417,46.4329206 21.6073303,47.514601 C23.063519,48.6402181 24.7080078,49.2030266 26.5387048,49.2030266 C23.4401195,51.6467455 19.9649336,52.8204838 16.0189972,52.8204838 C15.2678884,52.8204838 14.6109297,52.8204838 14,52.7263336 C17.8978153,55.2621104 22.264289,56.5299988 26.9613342,56.5299988" id="Fill-178" fill="#FFFFFF"></path>
        </g>
    </g>
</svg>